<svg version="1.2" xmlns="http://www.w3.org/2000/svg" viewBox="0 0 1120 1080" width="1120" height="1080">
	<title>authRight</title>
	<defs>
		<clipPath clipPathUnits="userSpaceOnUse" id="cp1">
			<path d="m0 0h1119.85v1080h-1119.85z"/>
		</clipPath>
	</defs>
	<style>
		.s0 { fill: #424244 } 
		.s1 { opacity: .05;fill: #000000 } 
	</style>
	<g id="Clip-Path" clip-path="url(#cp1)">
		<g>
			<path fill-rule="evenodd" class="s0" d="m1137-16.9v1113.8h-1155v-1113.8z"/>
			<path class="s1" d="m960.7 1068.7c38.2-4-3.8-7.5-12.7-8.5-17.6-1.6-56.6-4.7-78.4-2.5-2.6-6.7-3-5.4-5.7-12 26.6-6.9 58.9-5.5 87.7-8.5 1.9-0.3 15.7-1.5 13-4.9q-0.3-0.4-0.9-0.8c-2.7 0.5-26.3-2.4-29.3-2.8-17.8-1.8-60.2-5.5-76.8-1.4q-2.6-6.4-5.3-12.9c-0.5-1.5-1.3-2.5-2.5-3.6-1.3-0.9-2.5-1.4-4.1-1.7q-9.9-1-19.8-1.9c-2.6-0.2-41.9-4.4-34.8 1.6q0.8 0.6 2.2 1.4c9.3 0.4 36.5 6.9 48.3 9.6l4.6 17.9c3.7 14.2 7.5 28.3 11.5 42.3h20.2c-0.5-1.1-1-2.3-1.7-3.9 7.1-4 70.2-6.1 84.5-7.4z"/>
			<path fill-rule="evenodd" class="s1" d="m470.7 351.3c8-3.5 17.2-0.6 20.6 6.5 3.3 7.1-0.6 15.6-8.7 19.1-8 3.5-17.2 0.6-20.5-6.4-3.3-7.1 0.5-15.7 8.6-19.2zm-138.4-58c-9-2.6 28.6-14.4 31-15.2q9.5-3 18.9-6.1c1.6-0.4 2.9-0.4 4.5 0 1.6 0.5 2.7 1.1 3.8 2.2q5.2 4.9 10.3 9.8c13.4-10.4 53.6-23.8 70.6-29.2 2.9-0.8 25.7-7.5 28-9.1q0.7 0.2 1.1 0.4c3.9 2-8.1 8.7-9.8 9.6-24.9 14.2-55 25.7-76.3 42.5 5.2 5 5.1 3.7 10.3 8.7 18.9-10.6 55.8-23.3 72.6-28.7 8.4-2.7 48.2-16.1 15.2 2.6-12.5 6.9-69.2 33.8-73.9 40.2 4.6 4.5 6 5.3 10.6 9.9 9.4-4.7 18.8-9.3 28.2-13.7 9.2-4 51.5-23.5 65.5-19q1.8 0.6 3 1.7c0.4 2.2-1.7 4.5-3 6-16.6 15.2-69.3 37.4-91.1 46.7-2.2 1-4.1 1.3-6.6 0.9-2.4-0.5-4.1-1.4-5.8-3.1-15.2-17.3-30-34.7-44.5-52.5l-11.9-14.5c-11.9 2.2-39.5 7.1-48.1 10.4q-1.6-0.2-2.6-0.5zm186.2 37.3c8-3.5 17.2-0.6 20.5 6.5 3.4 7-0.5 15.6-8.6 19.1-8 3.5-17.2 0.6-20.6-6.5-3.3-7.1 0.6-15.6 8.7-19.1z"/>
			<path fill-rule="evenodd" class="s1" d="m353.9 551.4c0 8.5-6.6 15.4-14.7 15.4-8-0.1-14.5-7-14.5-15.5 0-8.5 6.6-15.4 14.7-15.4 8 0 14.5 6.9 14.5 15.5zm111.9-97.6c6.2-6.8 1.8 31.1 1.5 33.6q-1 9.5-2 19.1c-0.3 1.6-0.8 2.7-1.8 3.9-1.1 1.2-2.2 1.9-3.7 2.4q-6.7 2.6-13.5 5.1c4.3 16 0.4 56.9-1.7 74-0.3 2.9-3.5 25.7-2.9 28.3q-0.4 0.6-0.8 0.9c-3.5 2.6-4.8-10.8-5.1-12.6-3-27.7-1.5-58.9-8.5-84.6-6.9 2.6-5.6 3-12.5 5.5 2.2 21-1.1 58.6-2.9 75.6-0.9 8.5-4.7 49-8.8 12.2-1.3-13.8-3.3-74.7-7.3-81.5-6.2 2.2-7.5 3.2-13.7 5.3 0.5 10.1 1 20.3 1.2 30.4 0 9.7 0.9 54.9-9.2 65.4q-1.2 1.3-2.8 1.9c-2.2-0.5-3.5-3.3-4.4-5.2-7.5-20.8-6.6-76.3-6.5-99.2 0-2.4 0.6-4.2 1.9-6.2 1.5-1.9 3-3 5.4-3.8 22.6-6.2 45.1-12 67.9-17.4l18.6-4.5c2.8-11.3 9.7-37.5 10.1-46.4q0.9-1.5 1.5-2.2zm-112.1 148.1c0 8.5-6.6 15.4-14.6 15.4-8.1 0-14.6-7-14.6-15.5 0.1-8.5 6.6-15.4 14.7-15.4 8 0.1 14.5 7 14.5 15.5z"/>
			<path fill-rule="evenodd" class="s1" d="m30.3 391.5c-8.9 2.6 15.5-27.3 17.1-29.3q6.1-7.6 12.2-15.2c1.1-1.2 2.1-1.9 3.7-2.4 1.5-0.5 2.8-0.5 4.4-0.2q7.1 1.3 14.2 2.6c5.2-15.9 30.8-48.6 41.9-62.1 1.9-2.3 17-20 18-22.6q0.7-0.2 1.2-0.3c4.4-0.4-1.8 11.6-2.6 13.3-12.6 25.1-31 50.8-39 76.2 7.2 1.3 6.3 0.3 13.6 1.7 9.6-18.9 33-49.3 43.8-62.8 5.4-6.7 30.8-39.2 14.1-5.9-6.4 12.4-38 65.1-38.3 73 6.5 1.3 8.1 1.1 14.6 2.5 5.1-8.9 10.2-17.8 15.5-26.4 5.3-8.3 29.3-47.2 43.6-51q1.8-0.5 3.4-0.2c1.6 1.6 1.2 4.6 0.9 6.6-5 21.5-36 68.3-48.7 87.7-1.3 2-2.8 3.2-5 4.2-2.3 0.9-4.2 1.1-6.7 0.6-22.5-6.2-44.9-12.8-67.2-19.8l-18.2-5.7c-8.7 8.3-28.8 27-34 34.4q-1.5 0.8-2.5 1.1zm148.5-26c4.7-7.2 14-9.8 20.8-5.6 6.9 4.1 8.6 13.3 3.9 20.5-4.7 7.2-14 9.7-20.8 5.6-6.9-4.1-8.6-13.3-3.9-20.5zm27.8-42.9c4.6-7.2 14-9.7 20.8-5.6 6.8 4.1 8.6 13.3 3.9 20.5-4.7 7.3-14 9.8-20.9 5.7-6.8-4.1-8.5-13.3-3.8-20.6z"/>
			<path class="s1" d="m33.3 593.6c-19.8-5-16.4 0.5-2.6 5.5 19.3 7.5 16.5 27.1 5.4 35.3-8.6 6.2-24.1 6.2-36.1 5.7v11.4c17.1-0.3 34.3-3.5 43.9-11.8 12.8-11 15.5-38-10.6-46.1z"/>
			<path class="s1" d="m25.5 755c1.9-0.7 3-1.7 3.8-3.5 4.4-12.2 4.9-25 3.5-39.2-1.3-11.1-3.7-23.6-10.4-34.4-1.2-1.7-4.3-6.2-6.7-6.4-1.2 1.2 2.7 32.2 2.7 37.9-0.1 8.5-0.7 17-2.8 24.8-0.7 2.5-1.9 1.9-3.7 1.4q-2.3-0.8-4.7-1.5c1.2-3.8 1.6-8.1 1.7-10.6 0.3-18.5-3.5-38.5-8.9-56.1v81.7c6.1 1.4 12.4 3.2 19.6 5.7 2.2 0.7 4 0.8 5.9 0.2z"/>
			<path fill-rule="evenodd" class="s1" d="m704.4 352.5c2.8-9.1 11.7-14.6 19.8-12.3 8.2 2.4 12.5 11.6 9.7 20.7-2.8 9.2-11.7 14.7-19.9 12.3-8.1-2.3-12.4-11.6-9.6-20.7zm-48.4-38.2c-5.3 14.1-17.6 37.7-20.4 43.9-1.4 3.2-8.4 19.8-7.9 23.6q-0.4 0.5-0.8 0.7c-3.6 2.3-3.2-9.6-3-11.4 2.2-18.5 7.1-38.8 15.2-56 1.2-2.2 3.3-6 6-9.1q-1.9-1.5-3.7-3.1c-1.4-1.2-2.2-2.2-3.9-0.1-5.2 6.3-9.3 13.8-12.9 21.5-2.4 5.2-11.6 35.2-13.3 35.8-2.1-1-3.1-6.4-3.4-8.4-1.7-12.5 1.3-24.9 4.7-35.5 4.7-13.6 10.4-25.1 19.5-34.6 1.5-1.3 2.9-1.8 4.9-1.7 2.1 0.1 3.6 0.9 5.4 2.4 12.8 11.7 22.5 18.1 36.6 26.5 2.6 1.5 4.3 3.9 5.3 7 0.8 3.2 0.5 6-0.9 8.3-15.8 25.4-21.6 55.7-26 88.2-0.1 1-0.4 1.8-0.9 2.6-0.5 0.9-1 1.4-1.8 1.8-0.8 0.4-1.5 0.6-2.4 0.5-0.9-0.1-1.7-0.3-2.5-0.9-12-7.7-23.4-14.6-35.8-20.7-11-5.2-26-11.8-36.8-9.3-13.5 3.1-24.3 20-9.7 34.4 10.5 9.9 11.4 16.2-4.7 4-20.5-17.5-6.8-41.2 9.4-46.3 19.5-6.2 51.1 6.9 70.3 18.6 2.8 1.8 3.9 1 4-0.6 3-25.1 7-48.6 16.2-69.9 1.9-4.6 1.9-6.7-0.2-8q-3.3-2-6.5-4.2zm15.4 114.6c-5.5 9.1-2.4-18.1-2.2-19.7 4.5-31.1 11.3-63.9 28.3-91.3 2.2-3.5 4.6-6.6 7.7-9.4 4.7-4.3 10.4-7.3 16.8-6.2 5.1 1.1 8.5 4.4 10.3 9.2 0.7 2.2 0.9 4 0.8 6.3-0.1 2.3-0.6 4-1.7 6-1.2 2-3.2 4.4-5.6 2.9-0.7-0.5-1.3-2.6-1.5-3.3-3.1-7.6-9.1-5.1-14 2.5-12.2 18.9-19.7 37.8-27.2 58.8-2.5 7.5-11.5 35.9-11.7 44.2zm9.9-18.8c2.8-9.1 11.7-14.6 19.8-12.3 8.2 2.3 12.5 11.6 9.7 20.7-2.8 9.2-11.7 14.6-19.8 12.3-8.2-2.3-12.5-11.6-9.7-20.7zm4.9 4.2c-1.3 4.3 0.7 8.6 4.5 9.7 3.8 1.1 7.9-1.5 9.2-5.7 1.3-4.3-0.7-8.6-4.5-9.7-3.8-1.1-7.9 1.5-9.2 5.7zm27.5-47.9c3.8 1.1 8-1.5 9.3-5.7 1.3-4.3-0.7-8.6-4.5-9.7-3.8-1.1-8 1.5-9.3 5.7-1.3 4.3 0.7 8.6 4.5 9.7z"/>
			<path fill-rule="evenodd" class="s1" d="m774.6 946.3c10.2-29.9 23.1-61 44.9-84.9 2.9-3.1 5.8-5.7 9.4-8 5.4-3.4 11.6-5.3 17.6-3.1 4.8 2 7.6 5.8 8.4 10.8 0.3 2.3 0.2 4.1-0.3 6.4-0.6 2.2-1.3 3.8-2.8 5.6-1.6 1.7-4 3.7-6.1 1.8-0.6-0.5-0.7-2.7-0.8-3.5-1.7-7.9-8-6.6-14.3 0.1-15.5 16.4-26.4 33.7-37.7 53.1-3.8 6.9-18.1 33.3-19.8 41.4-7.1 8 1-18.2 1.5-19.7zm4.8-95.7c-7.9 12.9-24.4 34-28.3 39.6-2 2.9-12 18.1-12.2 21.9q-0.5 0.4-0.9 0.5c-4 1.7-1.3-9.9-0.8-11.7 5.7-17.9 14.3-37 25.5-52.4 1.5-2 4.3-5.4 7.5-7.9q-1.5-1.8-3-3.7c-1.2-1.5-1.8-2.6-3.9-0.9-6.2 5.3-11.7 12.1-16.7 19-3.3 4.7-18 32.6-19.8 32.9-1.8-1.4-1.8-6.8-1.7-8.9 0.7-12.6 5.9-24.2 11.2-34.1 7.2-12.5 15-22.9 25.7-30.6 1.7-1 3.2-1.3 5.2-0.9 1.9 0.6 3.3 1.5 4.8 3.4 10.4 13.7 18.7 21.7 31.1 32.4 2.2 1.9 3.5 4.6 3.8 7.8 0.3 3.3-0.5 6-2.4 8.1-20.3 22.2-31.7 51-42.1 82.1-0.3 1-0.7 1.7-1.3 2.5-0.7 0.7-1.3 1.1-2.1 1.4-0.9 0.3-1.6 0.3-2.5 0.1-0.9-0.3-1.6-0.6-2.3-1.3-10.4-9.8-20.3-18.5-31.4-26.7-9.8-7-23.3-16-34.3-15.5-14 0.7-27.7 15.5-16 32.2 8.4 11.5 8.1 17.9-5.4 3.1-16.9-20.8 0.9-41.7 17.9-44 20.3-2.7 48.9 15.7 65.6 30.6 2.5 2.2 3.6 1.6 4.1 0.1 7.6-24.2 16-46.6 29-66 2.8-4.1 3.1-6.2 1.3-7.8q-2.9-2.6-5.6-5.3zm7 98.6c4.4-8.5 14.2-12.3 21.8-8.6 7.5 3.7 10.1 13.6 5.6 22.1-4.5 8.4-14.2 12.3-21.8 8.6-7.6-3.7-10.1-13.6-5.6-22.1zm33.4-52.6c4.5-8.5 14.2-12.4 21.8-8.6 7.6 3.7 10.1 13.5 5.7 22-4.5 8.5-14.3 12.4-21.9 8.6-7.5-3.7-10.1-13.6-5.6-22zm-26.8 67.9c3.5 1.7 8.1-0.1 10.1-4 2.1-4 0.9-8.6-2.6-10.3-3.5-1.7-8.1 0.1-10.1 4-2.1 4-1 8.6 2.6 10.3zm30.8-62.9c-2.1 3.9-0.9 8.5 2.6 10.3 3.6 1.7 8.1-0.1 10.2-4.1 2.1-3.9 0.9-8.5-2.6-10.2-3.6-1.8-8.1 0-10.2 4z"/>
			<path fill-rule="evenodd" class="s1" d="m404.4 881.3c7.6-7.6-2.2 18.1-2.8 19.5-12.3 29.2-27.2 59.4-50.6 82-3 2.8-6.1 5.3-9.9 7.3-5.6 3-11.9 4.6-17.8 2-4.7-2.3-7.1-6.2-7.6-11.3-0.2-2.3 0-4.1 0.7-6.4 0.8-2.1 1.6-3.7 3.2-5.3 1.7-1.7 4.2-3.5 6.2-1.5 0.5 0.6 0.5 2.8 0.6 3.5 1.1 8.1 7.5 7.1 14.2 0.9 16.6-15.5 28.7-32 41.2-50.6 4.3-6.7 20.3-32.2 22.6-40.1zm-14.1 114.8c8.7-12.5 26.6-32.5 30.9-37.8 2.2-2.8 13.2-17.3 13.6-21.1q0.6-0.3 1-0.5c4.1-1.3 0.7 10.1 0 11.8-6.8 17.5-16.7 36-28.9 50.7-1.7 1.9-4.7 5.1-8.1 7.4q1.4 1.9 2.8 3.9c1 1.5 1.6 2.7 3.7 1.1 6.6-4.9 12.5-11.3 18-17.9 3.6-4.5 20.2-31.4 22-31.6 1.7 1.5 1.3 6.9 1.1 9-1.5 12.5-7.5 23.8-13.5 33.4-8 12-16.5 21.8-27.7 28.8-1.8 1-3.3 1.1-5.2 0.6-1.9-0.7-3.3-1.7-4.6-3.7-9.5-14.3-17.2-22.8-28.8-34.3-2.1-2-3.2-4.8-3.3-8-0.1-3.2 0.9-5.9 2.9-7.9 21.8-20.8 35.1-48.9 47.6-79.3 0.4-1 0.8-1.7 1.5-2.4 0.7-0.7 1.3-1 2.2-1.3 0.9-0.2 1.6-0.2 2.5 0.1 0.8 0.3 1.5 0.7 2.2 1.5 9.6 10.3 18.9 19.7 29.5 28.5 9.3 7.7 22.1 17.5 33.2 17.7 14 0.1 28.7-13.7 18.1-31.1-7.6-12.1-6.9-18.4 5.6-2.8 15.5 21.8-3.7 41.6-20.8 42.7-20.4 1.5-47.8-18.7-63.4-34.6-2.4-2.3-3.5-1.8-4.1-0.3-9.3 23.6-19.1 45.5-33.4 63.9-3 4-3.5 6.1-1.8 7.8q2.6 2.8 5.2 5.7zm-0.3-98.9c-5 8.2-15 11.4-22.3 7.2-7.3-4.2-9.2-14.2-4.1-22.4 5-8.1 15-11.4 22.3-7.2 7.3 4.2 9.2 14.2 4.1 22.4zm-36.9 50.4c-5.1 8.2-15.1 11.4-22.4 7.2-7.3-4.1-9.1-14.2-4.1-22.3 5-8.2 15-11.4 22.4-7.3 7.3 4.2 9.1 14.2 4.1 22.4zm31.4-66.1c-3.4-1.9-8.1-0.4-10.4 3.4-2.4 3.8-1.5 8.5 1.9 10.4 3.4 2 8 0.5 10.4-3.3 2.3-3.9 1.5-8.5-1.9-10.5zm-37 50.4c-3.4-1.9-8.1-0.4-10.4 3.4-2.3 3.8-1.5 8.5 1.9 10.4 3.4 2 8.1 0.5 10.4-3.3 2.4-3.8 1.5-8.5-1.9-10.5z"/>
			<path class="s1" d="m184 1056.2c-2.6-2.1-4.9-3.4-8.1-4.5-3.1-1-5.6-1.3-8.8-1-3.1 0.3-5.4 1-8.1 2.6-2.7 1.7-4.3 3.4-6 6-1.6 2.7-2.3 5-2.6 8.1 0 1.1 0 2.1 0.2 3.2 0.3 1.6 1.2 5.1 3.1 5.7 2.4-0.6 3.7-5.2 4.9-7.2 0.9-1.6 1.7-2.8 3.2-3.9 1-0.9 1.9-1.3 3.2-1.7 1-0.3 1.9-0.3 3-0.1 1.2 0.2 2 0.5 3 1 1.3 0.8 2.2 1.5 3.2 2.5 3 3.5 4.4 7.1 5.6 11.4q0.3 0.9 0.5 1.7h16.7q-0.9-3-1.8-6c-2.3-7.3-5.2-12.8-11.2-17.8z"/>
			<path fill-rule="evenodd" class="s1" d="m608.9 569c6.9 0.7 11.9 6.2 11.3 12.2-0.7 6.1-6.8 10.4-13.8 9.7-6.9-0.7-11.9-6.2-11.3-12.2 0.7-6.1 6.8-10.4 13.8-9.7zm22.1-6.3c17.9 6.4-30.4 1.6-33.1 1.4-6.9-0.6-13.7-1.1-20.5-1.9-6.4-0.8-12.1-1.7-18.2-3.6-5.5-1.9-9.4-3.8-13.8-7.5-4.4-4-6.8-7.6-9.3-12.8-2.9-6-4.5-11.6-6.2-18-3.9-15.7-6.8-31.7-9.5-47.7q-0.9-5.8-1.9-11.6c-0.7-4.5-1.7-8.1-4.3-11.9-0.9-1.1-1.7-2-2.9-2.8-1-0.7-1.8-1.1-2.9-1.4-1.1-0.2-1.9-0.3-3.1-0.1-1.3 0.2-2.2 0.6-3.3 1.3-1.6 1-2.6 2.1-3.6 3.6-1.4 1.8-3.2 6.2-5.6 6.6-1.9-0.7-2.4-4.4-2.5-6-0.1-1.1 0-2.1 0.1-3.2 0.7-3 1.6-5.2 3.5-7.8 1.9-2.4 3.8-3.9 6.6-5.3 2.9-1.3 5.2-1.8 8.4-1.8 3.2 0 5.6 0.6 8.6 1.9 3.1 1.4 5.2 2.9 7.6 5.3 5.4 5.6 7.7 11.4 9.2 18.9 3.6 19.7 6.3 39.2 9.5 59 1.1 5.5 2.3 10.7 4.2 16 1.5 3.7 2.9 6.5 5.6 9.4 2.9 3 5.5 4.5 9.3 6.2q1.5 0.6 2.9 1.2c4.1 1.5 8.8 2.7 13 3.5 13.6 3.1 38 8 52.1 9.1zm-58.5-59.3c0.3-6.2 0.8-11.5 1.1-14 0.2-0.8 2-12.1 2.4-15.2-14.3-1.8-29.7-3.6-34.3-3.2-12.5-3.8 35.5-0.3 36.5-0.2 8.4 0.8 16.7 1.6 25.1 2.5 12.7 1.3 25.4 2.8 38.1 4.1 4.1 0.5 8.2 1 12.3 1.6 3.1 0.4 7.8 0.4 7.9 4.6 0 0.8-0.1 1.3-0.5 2 0.1 0.9-11.8 43.4-13 51.2-0.1 1-0.3 1.8-0.6 2.7-0.6 1.3-1.1 2.1-2.2 3-1.1 0.8-2 1.2-3.3 1.6-1.2 0.2-2.2 0.3-3.4 0.3-6.9 0.1-16-1.2-23.1-1.9-8.8-0.8-17.7-1.4-26.6-2.4-9.5-1.1-21.6-2.4-30.5-6-0.7-0.3-1.2-0.7-1.8-1.3-0.2-0.3-0.5-0.6-0.7-1-0.3-0.6-0.6-1.2-0.7-1.8-0.4-1.4-0.8-2.8-1-4.2-0.6-4.2-1.3-8.6-1.5-12.8-0.2-2.8-2.1-35.6 1.4-35.8 1.1 0.8 2 5.4 2.3 6.6 1.2 6.1 2.1 12.5 3 18.8 2.7 0 5.8 0.3 6.7 0.4q3.2 0.2 6.4 0.5zm7.4 5.4q0 0 0 0 0 0 0 0zm0 0q0.2 4.8 0.4 9.7c0.1 1.6 0.3 7-0.6 11.1 4 0.5 8.1 1 12.2 1.4-0.8-4.9-0.5-12.7 0.3-20.2-4.7-0.7-8.4-1.3-10.7-1.7-0.2 0-0.8-0.2-1.6-0.3zm19.9 3.1q0 0 0 0 0 0 0 0zm0.1 0q-0.1 4.3-0.2 8.5c-0.1 1.6-0.2 7.2-1.4 11.2 4.3 0.4 8.5 0.8 12.3 1.1-0.5-4.7 0.1-12.1 1.1-19.3-4.1-0.4-8.1-1-11.8-1.5zm19.5 2.4q-0.2 4.1-0.5 8.1c-0.1 1.6-0.5 7-1.8 11 2.6 0.3 5.5 0.6 8.4 1-0.2-4.7 1.1-12.1 2.7-19.3-2.8-0.2-5.8-0.5-8.8-0.8zm16.6 1.3q-0.6 4.2-1.3 8.4c-0.2 1.6-1.2 7.1-2.9 11.1 2.3 0.2 4.6 0.4 6.7 0.5q0.4 0 0.8 0c0.9-4.3 2.8-11.8 5-19.9-2.4 0.1-5.2 0.1-8.3-0.1zm3.2 20.1l-0.1 0.6c0.1-0.2 0.3-0.4 0.5-0.6 0.1-0.1 0.4-0.2 0.3-0.2q-0.3 0-0.6 0.1 0 0-0.1 0.1zm6.7-25.9c2-6.9 3.7-14 5.8-19.3 1.2-3 2.1-4.9 0.9-5-4-0.4-7.9-1.4-11.9-1.9-0.1 1.1-0.3 2.1-0.4 2.4-1.2 7.4-2.2 14.8-3.2 22.1 3 0.4 6.2 1 8.8 1.7zm-15.8-2.4c1.4-5.3 2.7-9.8 3.5-11.9 0.2-0.7 2.9-8 4.4-12.4q-1.3-0.2-2.7-0.4-7.1-1.2-14.1-2.2c0 1.5-0.1 3.1-0.2 3.6-0.5 7.5-0.8 15-1.2 22.5q3.6 0.2 7.2 0.5c0.7 0 1.8 0.1 3.1 0.3zm-17.3-1.3c0.9-5.6 1.8-10.3 2.4-12.5 0.2-0.8 2.5-9.3 3.6-13.5q-8-1.2-16.1-2.3-0.9-0.1-2.5-0.4c0.2 1.8 0.1 4 0.1 4.5-0.2 7.8-0.3 15.6-0.4 23.3q6.4 0.4 12.9 0.9zm-20-1.3c0.7-5.9 1.6-11 2-13.3 0.2-0.8 2.5-10.5 3.2-14.4-4.9-0.6-12.2-1.7-20.1-2.7 0.5 1.8 0.5 4.6 0.5 5.3 0.3 8.1 0.8 16.1 1.2 24.2q6.6 0.4 13.2 0.9zm-32 7.1c0.6 4 1.2 8.1 2.1 12.1 0.2 0.7 0.4 1.5 0.6 2.3 2.9 0.9 6.1 1.6 9.6 2.2-1-5.3-1.1-13.5-0.8-21.2-4.4-0.9-9.3-1.9-12.6-2.5q0.5 3.6 1.1 7.1zm1.1 13.9c0.7 0.3 1.1 0.6 1.6 1.1 0.1 0 0.3 0.4 0.4 0.5 0.1 0.2-0.1-0.3-0.1-0.3q-0.2-0.4-0.3-0.8-0.8-0.2-1.6-0.5zm1.5 38.4c6.9 0.7 11.9 6.2 11.3 12.2-0.7 6.1-6.8 10.5-13.7 9.7-6.9-0.7-12-6.1-11.3-12.2 0.6-6.1 6.8-10.4 13.7-9.7zm-7.5 9c-0.3 2.9 2.1 5.5 5.4 5.9 3.3 0.3 6.3-1.8 6.6-4.7 0.3-2.9-2.1-5.5-5.4-5.9-3.3-0.3-6.3 1.8-6.6 4.7zm45.6 4.6c-0.4 2.9 2.1 5.6 5.4 5.9 3.3 0.4 6.2-1.7 6.5-4.6 0.4-2.9-2.1-5.6-5.4-5.9-3.3-0.4-6.2 1.7-6.5 4.6z"/>
			<path fill-rule="evenodd" class="s1" d="m880.5 913c-4.1 5.4-11.6 6.8-16.7 3.2-5-3.7-5.8-11-1.7-16.3 4.2-5.4 11.7-6.8 16.7-3.2 5.1 3.7 5.9 11 1.7 16.3zm-5.6 21.6c-14.8 11.6 14-26 15.6-28.2 3.9-5.4 7.9-10.8 12.1-16.1 3.9-4.8 7.7-9.1 12.4-13.2 4.5-3.6 8.2-5.9 13.8-7.6 5.7-1.7 10.2-1.8 16.1-1.3 6.8 0.7 12.7 2.2 19.2 4.1 16.1 4.7 31.8 10.5 47.4 16.3q5.7 2.2 11.4 4.4c4.3 1.7 8.1 2.7 12.8 2.4 1.5-0.1 2.6-0.4 4-0.9 1-0.5 1.8-1 2.7-1.8 0.8-0.7 1.2-1.4 1.7-2.4 0.4-1.2 0.6-2.2 0.5-3.5-0.1-1.8-0.6-3.1-1.4-4.8-0.9-2.1-3.9-5.8-3-8 1.6-1.2 5.1 0.3 6.6 1 1 0.5 1.8 1 2.7 1.7 2.4 2.1 3.9 4 5.2 6.9 1.2 2.8 1.6 5.1 1.4 8.1-0.3 3.1-1 5.3-2.6 7.9-1.7 2.7-3.5 4.4-6.1 6.2-2.8 1.9-5.3 2.8-8.6 3.6-7.8 1.6-14.1 0.6-21.5-1.9-19.5-7.1-38.3-14.8-57.6-22.2-5.4-1.9-10.7-3.6-16.4-4.7-4-0.6-7.2-0.8-11.3-0.1-4 0.9-6.8 2.3-10.2 4.6q-1.3 0.9-2.5 1.8c-3.4 2.6-6.9 5.9-9.8 9-9.7 9.7-26.4 27.5-34.6 38.7zm82.6-18.5c5.4 3.4 9.9 6.6 11.9 8.1 0.8 0.5 9.9 7.8 12.4 9.7 9-11 18.4-22.8 20.3-26.8 9.8-8.5-17.7 29.6-18.3 30.3-5 6.6-10 13.1-15 19.6-7.7 9.9-15.5 19.7-23.1 29.5-2.5 3.2-5.1 6.3-7.6 9.4-2 2.4-4.4 6.3-8.2 4.3-0.7-0.4-1.1-0.8-1.5-1.5-0.8-0.3-32.8-31.8-39.1-36.8-0.9-0.6-1.5-1.2-2.1-1.9-0.9-1.1-1.3-2-1.6-3.3-0.2-1.3-0.1-2.3 0.3-3.6 0.4-1.1 0.8-1.9 1.4-2.9 3.5-5.9 9.2-12.7 13.5-18.2 5.2-7 10.3-14.1 15.7-20.9 5.8-7.4 13.1-16.7 20.8-22.3 0.7-0.4 1.3-0.6 2.1-0.8 0.4 0 0.9-0.1 1.3-0.1 0.6 0.1 1.3 0.1 1.9 0.3 1.5 0.4 2.9 0.8 4.3 1.3 4 1.7 8.3 3.4 12.2 5.3 2.5 1.3 32.8 16.3 31.2 19.3-1.2 0.6-5.8-1-7-1.4-6.1-2.1-12.3-4.6-18.4-7-1.3 2.2-3.2 4.6-3.7 5.3q-1.8 2.6-3.7 5.1zm-17.4-1.2c-1.5-0.8-6.5-3.4-9.6-6.2-2.5 3-5 6.2-7.5 9.4 4.8 1.8 11.6 6.1 17.9 10.5 3-3.5 5.4-6.3 6.9-7.9 0.2-0.2 0.6-0.6 1.2-1.2q-4.5-2.3-8.9-4.6zm-4.1 19.5q0 0 0 0 0 0 0 0zm0 0q-3.8-2.2-7.5-4.4c-1.4-0.9-6.3-3.9-9.3-6.9-2.6 3.4-5 6.7-7.3 9.7 4.5 2 10.8 6.2 16.7 10.7 2.5-3.2 5-6.2 7.4-9.1zm-12.1 15q-3.5-2.2-7-4.5c-1.3-0.9-5.9-3.9-8.8-7-1.6 2-3.4 4.2-5.2 6.4 4.3 2.2 10.2 7 15.8 12.1 1.6-2.3 3.4-4.6 5.2-7zm-9.6 13.2q-3.4-2.7-6.9-5.3c-1.3-1.1-5.7-4.7-8.4-8.1-1.4 1.8-2.7 3.6-3.8 5.3q-0.2 0.3-0.4 0.6c3.3 2.9 9 8.3 15.2 14.3 1.1-2 2.6-4.3 4.3-6.8zm-19.6-7.6l-0.5-0.4c0.2 0.2 0.3 0.5 0.3 0.7 0 0.2 0 0.5 0.1 0.4q0.1-0.3 0.2-0.6-0.1 0-0.1-0.1zm19.7 18.8c5.2 5.1 10.6 10.1 14.3 14.7 2 2.4 3.3 4.1 4 3.2 2.4-3.2 5.3-5.9 7.8-8.9-0.9-0.7-1.7-1.4-2-1.6-6-4.7-12.1-9.3-18.1-13.9-1.9 2.3-4 4.6-6 6.5zm10.2-11.9c4.1 3.8 7.4 7.2 8.9 8.9 0.5 0.6 5.6 6.5 8.7 10q0.9-1 1.8-2 4.6-5.3 9.2-10.6c-1.4-0.8-2.7-1.7-3.2-2-6.4-4.2-12.9-8.4-19.4-12.5q-2.1 2.9-4.2 5.8c-0.3 0.5-1 1.3-1.8 2.4zm10-13.8c4.5 3.6 8.2 6.8 9.9 8.4 0.6 0.5 7 6.8 10.2 9.8q5.2-6 10.2-12.1 0.6-0.7 1.6-1.9c-1.6-0.7-3.5-1.9-4-2.2-6.9-4.2-13.7-8.2-20.6-12.2q-3.7 5.1-7.3 10.2zm22.1-7.4c0.7 0.5 8.2 7.4 11.2 9.9 3.1-3.7 7.8-9.3 12.7-15.3-1.8-0.5-4.4-1.9-5-2.3-7.4-3.8-14.8-7.5-22.2-11.3q-3.7 5.3-7.5 10.6c4.9 3.6 9 6.8 10.8 8.4zm6-35.9q-3.4-1.4-6.8-2.8c-4-1.5-7.9-3.1-11.9-4.3-0.8-0.3-1.6-0.5-2.4-0.7-2.2 1.9-4.5 4.2-6.9 6.8 5.3 1.8 12.7 6 19.4 10.1 3-3.2 6.4-6.8 8.6-9.1zm-19.9-8.9c-0.5 0.4-1 0.6-1.7 0.8-0.1 0-0.5 0-0.6 0-0.3 0 0.2 0.1 0.3 0.1q0.4 0 0.8 0.2 0.6-0.6 1.2-1.1zm-35-18.3c-4.1 5.3-11.6 6.8-16.7 3.1-5-3.6-5.8-10.9-1.6-16.3 4.1-5.4 11.6-6.8 16.6-3.2 5.1 3.7 5.9 11 1.7 16.4zm-3.4-3c2-2.6 1.6-6.1-0.8-7.8-2.4-1.8-6-1.1-8 1.5-2 2.6-1.6 6.1 0.8 7.8 2.4 1.7 6 1.1 8-1.5zm-27.3 35.5c2-2.6 1.6-6.1-0.8-7.9-2.5-1.7-6-1-8 1.5-2 2.6-1.6 6.1 0.8 7.9 2.4 1.7 6 1 8-1.5z"/>
			<path class="s1" d="m616.3 962.3c-10.4 3.3-21.6 22.5-11.1 29 4.6 2.8 10.9 1.1 14.1-3.8 2.7-5.3 0.1-16.7 8-13.4 3.6 1.6 7.7 10.6 5.6 26.8-2.4 18.8-5 52.4-5.5 79.1h2.9c6.2-29.3 16.1-76.1 15.7-95.1-0.3-20.3-19-26-29.7-22.6z"/>
			<path class="s1" d="m712.8 1061.6c-18 3.4-35.7 8.3-53.6 12.4 5.4-3.3 11.3-6.9 15.3-9.3 6.4-3.9 12.8-7.9 19.1-11.9 3.2-2.1 2.2-4.9-1.1-4.8 0 0-38.8 2.7-28.2 3.7 7 0.6 18.1-0.1 25.5-0.4-4 2.3-24.8 14.8-37.4 22-2.4 1.4-10.1 5-10 6.7h11.6c8-1.2 17.7-3.4 20.7-4.1 6.7-1.4 13.4-2.9 20.1-4.3-6.5 2.8-13.1 5.5-19.6 8.4h18c7.4-3.3 14.8-6.7 21.8-10.6 6.6-4.1 2.7-8.5-2.2-7.8z"/>
			<path class="s1" d="m767.5 1070.2c-31-22.3-68.4-43.4-100.9-64.7-1.1-0.7-2-1.1-3.3-1.3-2.6-0.3-4.9 0.5-6.9 2.4-1 0.9-1.6 1.8-2.1 3.1-5.1 14.9-10.8 33.5-10.7 48.8 0.1 2 0.4 7.9 2.4 8.8 1.2-0.8 9.3-23.2 15.2-39.2 2-5.6 0.3-7.4 5.1-4.2 7.8 5.1 16.7 11 23.1 15.1 21.8 13.8 44.7 28.1 67.1 41h24.6c-2.7-3.7-8.8-6.8-13.6-9.8z"/>
			<path fill-rule="evenodd" class="s1" d="m788.6 98.5c-5.3 1.5-10.8-1.9-12.4-7.5-1.6-5.6 1.3-11.3 6.5-12.7 5.3-1.4 10.8 2 12.4 7.6 1.7 5.6-1.3 11.2-6.5 12.6zm56.3-7.6c24.1-2-38.9 16.2-40.3 16.7-7.7 2.3-21.8 7.2-30.1 9.5-2.6 0.7-3 2.9-3.1 4.3q-0.1 1.8-0.2 3.6-0.7 12-1.4 24c-0.6 9.5-1.6 22-1.8 32.9-0.1 3 1.4 7.3 6 4.5 26-7.9 53.6-15.1 80-21.9 7.5-1.9 18-4.3 27.2-6.5 5.6-1.3 3.1-1.3 0.1-6.5-8.4-15-20.4-35.7-20.1-37.1 2-0.8 6.8 2.9 8.3 4.1 11.9 10.3 22.5 26.7 30.6 40.3 0.7 1.2 0.9 2.3 1 3.6 0.1 2.7-0.8 4.9-2.7 6.5-1.1 0.9-2 1.3-3.3 1.6-38.1 9.1-79.4 21.9-117.2 29.3-8.2 2.1-17.9 5.9-21.6 0.4-1.1-1.8-0.5-4.5-0.6-8.4 0.6-14.2 2.4-29.9 3.8-44.2q0.8-7.2 1.6-14.5 0.6-4.7 1.2-9.4c0.2-2.5 0.4-5.1 0.9-7.6 1-5.9 6.6-6.7 18.8-9.9 19.2-4.9 49.4-10.9 62.9-15.3zm0.1 69.9c-2 2.4-5 1.2-4.4-2.5 1.1-7.2 2.3-14.4 3.6-21.6 0.7-4.5 1.9-11.2 2.9-17.2-8.7 15.6-16.7 31.6-26.1 46.7-2.8 4-8.7 3.9-7.5-3.6 2.6-12.3 7-24.4 10.7-36.4-10.4 13.6-20.5 27.4-31.1 40.8-0.6 0.7-6.3 7.7-6.5 7.8-7 7.6-10.9 5-7.8-5.1 4.2-11.8 9.5-23 14.6-34.3-4.2 4.7-8.7 9.5-11.6 11.4-0.9 0.7-1.7 1-2.2 0.9-0.5-0.5 3.4-6.6 3.7-7.1 4.7-7.5 9.9-15 15.3-22 3.3-3.7 9.4-2.1 7.4 4.7-2.7 8.3-5.9 16.4-9.3 24.4 14-17.9 31.4-40.5 32.5-40.9 2.7-2.9 8.3-3.3 7.2 4.1-2.8 12.1-7.2 23.8-11.2 35.7 3.4-5.7 6.7-11.5 10.1-17.3 1.9-3.2 8.9-15.6 13.8-22 8.5-11.2 3.9 3.9 3.2 7.7-2.8 13.9-7.1 37.2-8 41.6 4.7-5.5 11.6-14 16.7-18.6 7.8-7-15.9 22.7-16 22.8zm100.6 2.4c7.9-3.4-2.7-9.3-5-14.7-1.6-5.6 1.3-11.2 6.5-12.6 12-3.2 19.3 17.6 14.9 27.3-4.4 9.9-21.3 19.6-37.2 6.3-17.7-14.9-56-66.2-72.1-86.6 21.6 18.2 53.1 49.5 68.5 66.5 11.1 12.3 20.8 15.3 24.4 13.8zm-115.4-86.8c-1.7-5.6 1.3-11.2 6.5-12.6 5.3-1.5 10.8 1.9 12.4 7.5 1.6 5.6-1.3 11.3-6.5 12.7-5.3 1.4-10.8-2-12.4-7.6z"/>
			<path fill-rule="evenodd" class="s1" d="m999.9 402.6c2.3-4.8 8.6-6.6 14-4.1 5.5 2.6 8 8.4 5.6 13.1-2.3 4.8-8.7 6.6-14.1 4.1-5.4-2.5-7.9-8.4-5.5-13.1zm-31.2 45.9c-14.3 18.7 13-38.9 13.6-40.3 3.2-7.1 8.7-20.6 12.4-28.1 1.2-2.3-0.2-4.1-1.3-5.1q-1.3-1.3-2.7-2.5-8.9-8.4-17.8-16.9c-7-6.6-16.1-15.6-24.4-22.9-2.3-2-6.7-3.8-7.6 1.4-10.9 24.1-23.4 48.8-35.6 72.4-3.5 6.7-8.5 15.9-12.8 24-2.7 5-1.1 3.1 5 4.4 17.2 3.8 41.2 8.7 42.2 9.9-0.7 2-6.8 3-8.8 3.3-15.8 1.9-35.6-1.3-51.5-4.4-1.4-0.3-2.4-0.8-3.5-1.6-2.2-1.7-3.3-3.8-3.3-6.3 0.1-1.3 0.3-2.2 1-3.3 18-33.8 35.2-72.1 54.4-104.4 3.7-7.3 7.2-16.9 13.9-15.9 2.1 0.3 3.8 2.5 6.9 5.1 10.8 9.8 21.8 21.4 31.9 31.8q5.2 5.4 10.3 10.7 3.3 3.6 6.6 7.1c1.8 1.9 3.6 3.7 5.3 5.7 3.9 4.6 0.8 9.2-4.7 20.1-8.8 17.2-24 43.1-29.5 55.8zm-54.6-46c-0.5-3.1 2.4-4.4 4.9-1.6 4.9 5.6 9.7 11.2 14.5 16.9 3 3.5 7.4 8.7 11.4 13.5-6.3-16.7-13.5-33-19.2-49.8-1.3-4.6 2.8-8.9 7.8-3.1 7.9 10.1 14.3 21.2 21.3 31.8-3.7-16.5-7.9-33-11.3-49.5-0.2-0.9-1.9-9.6-1.8-9.9-1.3-10 3.3-11.1 9.1-2.3 6.4 10.9 11.7 22.1 17.2 33.2-1-6.1-1.7-12.5-1.3-15.8 0.1-1.2 0.3-1.9 0.7-2.2 0.8-0.1 3 6.8 3.2 7.3 2.7 8.4 5.1 17.1 7 25.6 0.7 4.9-4.6 8.2-8.6 2.2-4.7-7.3-8.8-15-12.9-22.7 4.8 21.9 11 49.4 10.5 50.5 0.5 3.9-2.9 8.2-7.9 2.5-7.6-10-13.8-20.9-20.5-31.6 2.2 6.2 4.6 12.4 6.9 18.7 1.2 3.5 6.2 16.7 8 24.5 3.2 13.6-5.6 0.2-8.1-2.8-8.9-11.2-24.3-29.7-27.1-33.2 1.2 7 3.2 17.6 3.4 24.4 0.3 10.3-7.2-26.5-7.2-26.6zm-53.4 77.4c5.4 2.5 7.9 8.3 5.5 13-5.3 10.8-26.4 2.4-31.1-7.1-4.8-9.8-1.2-28.4 19.7-31.2 23.2-3.1 88.4 3 115 4.8-28.4 3.7-73.6 5.9-97 5.8-16.9 0-25.7 5-26.8 8.6-2.6 8 8.9 4.2 14.7 6.1zm114.9-28.6c2.4-4.7 8.7-6.5 14.1-4 5.4 2.5 7.9 8.4 5.5 13.1-2.3 4.7-8.6 6.5-14 4-5.5-2.5-8-8.3-5.6-13.1z"/>
			<path fill-rule="evenodd" class="s1" d="m91.5 433.6c-1.7-5.6 1.1-11.3 6.3-12.8 5.3-1.5 10.9 1.8 12.6 7.4 1.7 5.5-1.1 11.2-6.4 12.7-5.2 1.5-10.8-1.8-12.5-7.3zm68.8-1.2c24-2.4-38.7 16.8-40.1 17.3-7.7 2.5-21.6 7.6-29.9 10-2.6 0.7-3 2.9-3.1 4.4q0 1.8-0.1 3.6-0.5 12-1 24c-0.4 9.5-1.2 22-1.2 32.9 0 3 1.5 7.3 6.1 4.4 25.8-8.3 53.3-16 79.6-23.2 7.5-2 17.9-4.6 27-6.9 5.7-1.4 3.1-1.3 0.1-6.5-8.7-14.8-21-35.3-20.8-36.8 2-0.9 6.9 2.8 8.4 4 12.1 10 23 26.3 31.3 39.8 0.7 1.2 1 2.2 1.1 3.6 0.1 2.7-0.8 4.9-2.7 6.6-1 0.8-1.9 1.2-3.2 1.5-38 9.8-79 23.2-116.7 31.2-8.1 2.2-17.8 6.3-21.6 0.8-1.1-1.7-0.6-4.4-0.7-8.4 0.3-14.2 1.8-30 3-44.2q0.7-7.3 1.4-14.5 0.5-4.7 1-9.5c0.2-2.5 0.3-5.1 0.7-7.6 1-5.9 6.6-6.8 18.7-10.2 19.1-5.2 49.2-11.7 62.7-16.3zm1.3 69.8c-2.1 2.4-5 1.3-4.5-2.3 1-7.3 2.1-14.5 3.2-21.8 0.7-4.4 1.7-11.1 2.7-17.2-8.5 15.7-16.2 31.8-25.4 47.2-2.6 4-8.6 3.9-7.5-3.5 2.4-12.4 6.6-24.5 10-36.6-10.2 13.7-20 27.8-30.3 41.3-0.6 0.7-6.2 7.8-6.4 7.9-6.9 7.7-10.8 5.1-7.9-5 4-11.8 9.1-23.1 14-34.5-4.1 4.8-8.6 9.6-11.3 11.6-1 0.6-1.8 1-2.3 0.9-0.5-0.5 3.3-6.7 3.6-7.2 4.6-7.6 9.6-15.1 14.9-22.2 3.3-3.8 9.4-2.2 7.5 4.6-2.5 8.4-5.6 16.5-8.8 24.6 13.6-18.2 30.6-41.1 31.7-41.5 2.7-2.9 8.2-3.4 7.2 4-2.5 12.2-6.7 24-10.5 35.9 3.3-5.8 6.5-11.6 9.8-17.5 1.8-3.2 8.7-15.7 13.5-22.2 8.3-11.4 3.9 3.9 3.2 7.6-2.6 13.9-6.4 37.4-7.3 41.7 4.6-5.5 11.4-14.1 16.5-18.8 7.7-7.1-15.6 23-15.6 23zm95.3-13.8c-1.7-5.5 1.1-11.2 6.3-12.7 11.9-3.4 19.6 17.3 15.4 27.1-4.3 10-21 19.9-37.1 6.8-18-14.5-57.2-65.2-73.6-85.4 21.9 17.9 54 48.6 69.6 65.4 11.4 12.2 21.1 15 24.7 13.4 7.8-3.5-2.9-9.2-5.3-14.6zm-99.1-62.9c-5.2 1.5-10.8-1.8-12.5-7.4-1.8-5.5 1.1-11.2 6.3-12.7 5.2-1.5 10.8 1.8 12.5 7.3 1.8 5.6-1.1 11.3-6.3 12.8z"/>
			<path class="s1" d="m25.5 258c0.6 1.2 2 4.4 3 4.7 0.3-0.1 0.4-0.7 0.4-1.6 0-4.2-2.8-15.6-6.2-27.9-4.7-17.1-10.6-35.8-11.5-38.6-3.7-11.3-7.4-22.7-11.2-34.1v24c1.2 3.9 2.5 7.7 4.1 12.7q-2.1 0.6-4.1 1.2v11.6c2.6-0.8 5-1.7 7.2-2.7 2.8 8.7 4.4 13.4 7.1 21.3-2.8 2.1-8.1 4.4-14.3 6.7v7.6c6.1-1.5 12.1-3.3 17.5-5.3 2.8 7.9 5.5 14.9 8 20.4z"/>
			<path class="s1" d="m63.9 296.5c12.9 9.5 15.3 11.7 16.8 10.7 4.6-2.9-5.5-16-12.9-21.2-20.5-14.3-44.4-16.3-67.8-13.4v9c22-2.5 43.9-0.1 63.9 14.9z"/>
			<path fill-rule="evenodd" class="s1" d="m337.6 249.9c-1.7 2.3-14.1 17.9-25.7 31.6-8.3 9.9-16.2 18.8-19.7 21.2-0.8 0.6-1.4 0.8-1.7 0.6-0.2-0.9 1.6-4 2.3-5.1 3.2-5.1 7.5-11.3 12.4-18.2-12.4-7.7-25.6-19.6-36.4-28.7-3.9-3.3-10-9.6-14.5-12.1q-0.2-0.4-0.2-0.7c-0.5-2.5 8 3.2 8.3 3.4 11.5 7.1 37.7 27.2 48.6 30.3 4.9-6.7 8-10.7 13.7-18-12.4-6.6-27.4-20.8-37.3-29.7-3.2-2.9-10.3-10.7-14.2-12.6q-0.1-0.4-0.1-0.7c0-2.9 8.4 2.5 8.8 2.7 16.2 9.5 34.6 20.7 49.4 31.9 5.6-7.2 9-11.5 14.4-18.3-12.4-7.7-25.7-20.1-36.3-29.3-3.9-3.4-9.9-9.8-14.4-12.3q-0.1-0.4-0.2-0.7c-0.3-2.6 8.1 3.1 8.4 3.3 16.8 10.5 31.8 21 47.7 32.5 5.9-7.3 9.8-12.2 14.4-17.9q-11.1-6.2-22-12.6c-9.6-5.6-25.4-16.3-36-20.1q-0.6-0.7-0.9-1.1c-2.6-4.7 19.2 4.8 19.9 5.1 16.3 6.7 32.4 13.6 48.4 20.6 0.3 0.1 1 0.8 1.1 1.1 0.2 0.6 0.3 1.1 0.2 1.9-0.1 0.7-0.3 1.4-0.6 2.3-0.4 0.8-0.8 1.5-1.4 2.3-12.1 15.8-24.1 31.7-36.4 47.3zm-106.1-19.9c6.2-0.7-2.2 3.3-5.3 4-3 0.5-5.3 0.4-8.2-0.2q-0.9-0.2-1.8-0.5c-2.1-0.8-3.7-1.7-5.5-3-2.5-1.9-4-3.7-5.5-6.4-1.4-2.8-2.1-5.2-2.3-8.3-0.1-3.2 0.2-5.6 1.2-8.6 1.1-3.1 2.3-5.3 4.4-7.8 2.3-2.6 4.3-4.3 7.4-6 3.1-1.6 5.6-2.4 9-2.8 3.4-0.3 5.9-0.1 9 0.7 3.1 1 5.3 2.1 7.8 4.1 1.6 1.4 2.9 2.8 4 4.5 0.3 0.5 1.4 2.2 1.5 2.7 1.3 3 1.8 5.5 1.7 8.8-0.1 3.2-0.7 5.6-2.1 8.5-1.5 2.8-3 4.8-5.4 6.8-1.7 1.3-6.8 4.5-8.5 2.1-0.3-0.6 0.8-2.2 1.2-2.7 0.7-1.2 1.6-2.2 2.4-3.4 1.1-1.8 1.8-3.2 2.4-5.1 0.5-1.9 0.7-3.4 0.7-5.3-0.2-2-0.5-3.4-1.3-5.2-0.9-1.7-1.8-2.9-3.2-4.2-1.4-1.3-2.7-2-4.5-2.7-1.9-0.6-3.4-0.8-5.4-0.8-2.1 0.2-3.7 0.5-5.8 1.4-2 0.9-3.4 1.9-5 3.4-1.6 1.6-2.6 3-3.5 5-1 2.1-1.4 3.7-1.6 5.9q0 0.7 0 1.3c0.1 1.9 0.4 3.3 1 5.1 0.9 2.2 1.9 3.7 3.5 5.4 1.8 1.6 3.3 2.6 5.6 3.5 2.3 0.8 4.2 1.1 6.7 1 1.6-0.1 4-0.4 5.4-1.2zm37-48.5c6.2 0.2-2.7 2.8-5.9 3-3 0-5.2-0.5-7.9-1.6q-0.9-0.4-1.7-0.9c-1.9-1.1-3.3-2.2-4.8-3.9-2-2.3-3.2-4.4-4.2-7.3-0.9-3-1.1-5.5-0.8-8.7 0.5-3.1 1.2-5.5 2.7-8.3 1.6-2.9 3.2-4.9 5.7-7 2.7-2.3 5-3.6 8.3-4.7 3.3-1.1 5.9-1.5 9.3-1.3 3.3 0.3 5.7 0.9 8.6 2.3 2.8 1.5 4.8 3 6.8 5.4 1.3 1.7 2.3 3.2 3.1 5.2 0.2 0.5 0.9 2.4 1 2.9 0.7 3.2 0.7 5.8 0.1 9.1-0.7 3.1-1.7 5.4-3.6 8.1-1.9 2.6-3.7 4.3-6.5 5.8-1.9 1-7.4 3.3-8.6 0.7-0.2-0.7 1.2-2.1 1.6-2.5 1-1.1 2-2 3-3.1 1.3-1.5 2.3-2.8 3.2-4.6 0.9-1.8 1.3-3.2 1.6-5.1 0.2-2 0.2-3.5-0.3-5.4-0.5-1.9-1.2-3.3-2.3-4.8-1.2-1.5-2.3-2.4-4-3.4-1.7-0.9-3.1-1.4-5.1-1.7-2.1-0.3-3.7-0.2-5.8 0.3-2.2 0.6-3.7 1.3-5.6 2.6-1.8 1.3-3 2.5-4.3 4.3-1.2 1.9-1.9 3.5-2.5 5.7q-0.1 0.6-0.2 1.3c-0.3 1.8-0.3 3.3 0 5.2 0.5 2.3 1.2 4 2.5 6 1.4 1.9 2.7 3.2 4.7 4.4 2.1 1.2 4 1.9 6.4 2.2 1.6 0.2 3.9 0.2 5.5-0.3zm27.3-12.7c7.9-3.9-15.1 22-15.9 23.1q-10.7 12.8-21.1 25.9c-7.6 9.5-15.1 19.1-22.1 29.1-6.4 9.1-6.6 10.1-2.5 13.2 28.3 21.5 59.8 48.5 59.8 87.7 0 8.8-5.2 24.3-10.2 22.5-1.8-0.7-1.4-3.8-0.9-19.4 1.4-41.4-30.5-65.8-59.7-88.9-3-2.3-1-6.2 0.6-8.9 2.3-3.4 4.5-6.9 7.1-10.1 4.1-5.1 8.1-10.1 12.4-15.1q5.6-6.7 11.4-13.3c10.9-12.5 31.8-33.6 41.1-45.8z"/>
			<path fill-rule="evenodd" class="s1" d="m662.2 705.7c2.3-1.7 18.3-13.7 33.2-24.1 10.7-7.5 20.7-14.1 24.7-15.6 0.9-0.4 1.5-0.4 1.8-0.2 0 1-2.6 3.4-3.5 4.4-4.5 4.2-10.3 9.1-16.9 14.5 10 10.5 19.5 25.3 27.6 36.7 2.9 4.2 7.1 11.8 10.7 15.3q0.1 0.4 0.1 0.7c-0.2 2.5-6.9-5.1-7.2-5.3-9.1-9.7-29.2-35.6-38.8-41.3-6.6 5.2-10.7 8.3-18.1 14 10.2 9.5 20.9 26.9 28.2 38 2.3 3.6 7.1 12.8 10.3 15.6q0 0.5-0.1 0.7c-0.7 2.8-7.4-4.5-7.8-4.8-13-13.1-27.9-28.5-39.2-43.1-7.4 5.6-11.8 9-18.8 14.2 9.9 10.5 19.5 25.8 27.3 37.3 2.9 4.2 7 11.9 10.6 15.5q0.1 0.4 0 0.7c-0.3 2.6-6.9-5-7.2-5.3-13.5-14.3-25.1-28.1-37.5-43.2-7.6 5.6-12.7 9.4-18.6 13.8q9.1 8.7 17.9 17.6c7.8 7.8 20.2 22 29.5 28.3q0.4 0.8 0.5 1.3c1.3 5.2-17.3-9.4-17.9-9.8-13.9-10.6-27.7-21.2-41.3-32-0.3-0.1-0.8-1-0.7-1.3-0.1-0.6 0-1.1 0.3-1.8 0.3-0.8 0.6-1.3 1.2-2.1 0.6-0.7 1.1-1.2 2-1.9 15.8-12.3 31.7-24.6 47.7-36.8zm97.2 45.5c-6.2-0.8 3-2.6 6.2-2.5 3 0.2 5.3 0.9 7.9 2.2q0.8 0.5 1.6 1c1.9 1.3 3.2 2.5 4.6 4.2 1.8 2.4 2.8 4.6 3.5 7.6 0.6 3 0.7 5.4 0.1 8.6-0.7 3-1.7 5.3-3.5 8-1.8 2.6-3.6 4.5-6.3 6.4-2.9 2-5.4 3.1-8.7 4-3.5 0.7-6.1 0.9-9.5 0.4-3.3-0.5-5.7-1.3-8.5-2.9-2.8-1.7-4.6-3.3-6.4-5.9-1.2-1.7-2.1-3.3-2.8-5.3-0.1-0.5-0.7-2.5-0.6-2.9-0.5-3.3-0.3-5.8 0.6-9 1-3.1 2.2-5.2 4.3-7.7 2.2-2.4 4.2-3.9 7.1-5.2 2-0.8 7.7-2.7 8.7 0 0.1 0.7-1.4 2-1.8 2.4-1.1 0.9-2.2 1.7-3.3 2.7-1.5 1.4-2.5 2.6-3.6 4.3-1.1 1.7-1.7 3.1-2.1 4.9-0.4 2-0.4 3.5-0.1 5.4 0.3 1.9 0.9 3.2 1.9 4.9 1.1 1.5 2.1 2.5 3.7 3.6 1.6 1.1 3 1.7 5 2.1 2.1 0.4 3.7 0.5 5.9 0.1 2.2-0.4 3.8-0.9 5.8-2 1.9-1.2 3.3-2.3 4.7-4 1.5-1.7 2.3-3.2 3.1-5.3q0.2-0.6 0.3-1.3c0.5-1.8 0.6-3.2 0.4-5.1-0.2-2.3-0.8-4.1-2-6.1-1.2-2-2.4-3.4-4.4-4.8-2-1.3-3.8-2.1-6.2-2.6-1.6-0.3-4-0.6-5.6-0.2zm-48.6 37.8c-5.9-1.8 3.4-2.1 6.5-1.5 2.8 0.8 4.9 1.8 7.2 3.6q0.7 0.5 1.4 1.2c1.6 1.6 2.6 3 3.6 5 1.4 2.7 2 5 2.1 8.1 0 3.1-0.4 5.6-1.6 8.6-1.2 2.9-2.5 5-4.8 7.4-2.3 2.3-4.3 3.8-7.3 5.3-3.2 1.5-5.8 2.2-9.2 2.5-3.5 0.2-6.1-0.1-9.4-1.1-3.1-1-5.2-2.2-7.7-4.3-2.3-2.1-3.8-4.1-5.1-6.9-0.9-2-1.4-3.7-1.7-5.8 0-0.5-0.2-2.6-0.1-3 0.1-3.3 0.8-5.8 2.3-8.9 1.5-2.8 3.1-4.8 5.6-6.9 2.5-2 4.7-3.2 7.8-4.1 2.1-0.4 8.1-1.3 8.5 1.6 0 0.6-1.7 1.7-2.2 2-1.2 0.8-2.4 1.4-3.7 2.2-1.7 1.1-2.9 2.1-4.3 3.7-1.3 1.5-2.2 2.8-3 4.5-0.7 1.9-1 3.4-1.1 5.3 0 2 0.3 3.4 1 5.2 0.7 1.7 1.6 2.9 2.9 4.3 1.4 1.3 2.6 2.1 4.5 2.9 1.9 0.8 3.5 1.1 5.7 1.1 2.2 0 3.9-0.3 6.1-1.1 2.1-0.8 3.6-1.7 5.3-3.1 1.7-1.6 2.8-2.9 3.9-4.9q0.3-0.5 0.6-1.1c0.8-1.8 1.2-3.2 1.3-5.1 0.2-2.4 0-4.2-0.8-6.4-0.8-2.2-1.7-3.8-3.4-5.5-1.7-1.7-3.3-2.7-5.6-3.7-1.4-0.5-3.7-1.2-5.3-1.1zm-8.3-12.8q13.7-9.8 27.3-19.8c9.8-7.4 19.7-14.8 29.1-22.7 8.6-7.3 9.1-8.1 5.9-12.2-21.7-27.7-44.9-61.6-34.5-99.5 2.4-8.5 11.5-22.2 15.9-19.2 1.5 1.1 0.3 4-4.4 19-12.3 39.7 12 71 34.2 100.7 2.2 2.9-0.7 6.2-3 8.4-3.1 2.8-6.2 5.5-9.5 8-5.4 3.9-10.6 7.8-16 11.6q-7.3 5-14.6 10c-13.9 9.4-39.7 24.6-52 34.1-8.6 1.8 20.5-17.6 21.6-18.4z"/>
			<path fill-rule="evenodd" class="s1" d="m195 682.9c-2.5-1.6-19.5-12.3-34.6-22.4-10.8-7.3-20.6-14.2-23.4-17.4-0.6-0.7-0.9-1.3-0.7-1.5 1-0.4 4.2 1.1 5.5 1.7 5.5 2.7 12.2 6.4 19.7 10.6 7-12.5 18.4-26.1 26.9-37.1 3.2-4.1 9.2-10.4 11.5-14.9q0.4-0.2 0.6-0.2c2.6-0.7-2.7 7.9-2.8 8.2-6.5 11.5-25.3 38.3-27.8 49 7.4 4.2 11.8 6.9 19.7 11.8 6-12.4 19.5-27.9 28-38.1 2.7-3.3 10.2-10.7 11.9-14.5q0.4-0.2 0.7-0.2c3-0.2-1.9 8.2-2.2 8.7-8.5 16.2-18.7 34.7-29.2 49.9 7.8 4.8 12.6 7.7 20 12.5 7-12.5 18.9-26.3 27.5-37.2 3.3-4 9.4-10.2 11.8-14.7q0.3-0.2 0.6-0.3c2.7-0.5-2.6 8-2.8 8.3-9.6 17-19.3 32.2-30 48.4 8 5 13.4 8.5 19.6 12.4q5.6-11.1 11.4-22.1c5.1-9.6 14.9-25.6 18.1-36.1q0.6-0.7 1.1-0.9c4.6-2.9-3.6 18.8-3.8 19.5-5.7 16.1-11.6 32.2-17.7 48.1-0.1 0.3-0.8 1-1.1 1.1-0.6 0.3-1.1 0.4-1.9 0.4-0.8-0.1-1.5-0.2-2.4-0.5-0.9-0.3-1.6-0.6-2.5-1.2-17.2-10.3-34.5-20.8-51.7-31.3zm12.6-103.6c1.3 5.9-3.5-1.9-4.5-4.8-0.7-2.8-0.8-5.1-0.4-7.9q0.2-0.9 0.5-1.8c0.6-2.1 1.4-3.7 2.6-5.5 1.8-2.5 3.6-4.1 6.2-5.7 2.8-1.6 5.2-2.4 8.5-2.9 3.2-0.4 5.7-0.2 8.9 0.5 3.2 0.8 5.6 1.9 8.4 3.7 2.9 2 4.8 3.8 6.7 6.6 1.9 2.9 3 5.3 3.6 8.5 0.6 3.2 0.6 5.6-0.1 8.7-0.7 3-1.7 5.3-3.6 7.8-1.3 1.7-2.6 3-4.4 4.2-0.4 0.3-2.1 1.5-2.6 1.6-3 1.5-5.5 2.1-9 2.3-3.3 0.1-5.8-0.2-9-1.4-3-1.1-5.1-2.4-7.4-4.7-1.4-1.5-5.1-6.2-2.8-7.9 0.6-0.4 2.4 0.6 2.9 0.8 1.3 0.7 2.4 1.5 3.7 2.1 1.9 0.9 3.4 1.5 5.5 1.9 1.9 0.4 3.5 0.5 5.5 0.3 2-0.3 3.5-0.7 5.2-1.6 1.8-1 3-1.9 4.2-3.4 1.2-1.5 1.8-2.7 2.4-4.5 0.5-1.9 0.6-3.3 0.4-5.3-0.3-2-0.8-3.5-1.8-5.4-1.1-1.9-2.3-3.2-4-4.7-1.7-1.3-3.3-2.2-5.4-2.9-2.2-0.8-3.9-1.1-6.2-1q-0.7 0-1.3 0c-2 0.2-3.4 0.6-5.2 1.3-2.2 1.1-3.7 2.1-5.4 3.9-1.5 1.7-2.4 3.3-3.1 5.5-0.7 2.3-0.9 4.2-0.6 6.6 0.2 1.5 0.7 3.8 1.6 5.1zm53.1 31.9c0.1 6-3.2-2.4-3.6-5.4-0.2-2.9 0.1-5.1 1.1-7.8q0.3-0.8 0.7-1.6c1-2 2.1-3.4 3.7-5 2.2-2.1 4.3-3.4 7.3-4.5 3-1.1 5.5-1.5 8.9-1.4 3.2 0.1 5.7 0.7 8.8 1.9 3.1 1.3 5.2 2.7 7.7 5 2.5 2.4 4 4.5 5.4 7.5 1.4 3.1 2 5.6 2 8.9 0 3.2-0.5 5.6-1.7 8.4-1.3 2.9-2.7 4.9-5.1 7-1.6 1.4-3.1 2.5-5.1 3.4-0.5 0.3-2.4 1.1-2.9 1.1-3.3 1-5.9 1.2-9.4 0.8-3.3-0.4-5.8-1.2-8.7-2.8-2.8-1.7-4.6-3.3-6.5-5.8-1.1-1.8-3.9-6.9-1.3-8.2 0.7-0.2 2.3 1 2.7 1.3 1.2 0.9 2.2 1.8 3.4 2.6 1.6 1.3 3.1 2.1 5 2.8 1.9 0.7 3.4 1 5.4 1.2 2.1 0 3.7-0.2 5.6-0.7 1.9-0.7 3.2-1.4 4.7-2.6 1.5-1.3 2.4-2.4 3.3-4.1 0.8-1.7 1.2-3.1 1.4-5 0.1-2.1-0.2-3.6-0.8-5.6-0.8-2-1.7-3.5-3.1-5.2-1.5-1.6-2.9-2.7-4.8-3.8-2.1-1-3.8-1.6-6.1-2q-0.6-0.1-1.3-0.1c-2-0.1-3.5 0-5.4 0.4-2.4 0.6-4.1 1.4-6 2.9-1.9 1.4-3.1 2.8-4.2 4.9-1.1 2.1-1.7 3.9-1.8 6.3-0.1 1.5 0 3.7 0.7 5.2zm15.1 25.4c4.6 7.2-23.9-12.9-25-13.7q-14.1-9.2-28.4-18.3c-10.4-6.6-20.9-13.1-31.8-19-9.9-5.5-10.9-5.7-13.8-1.4-20.1 28.8-45.7 61.1-86.2 64-9.1 0.7-25.6-3.1-24-8.1 0.6-1.8 3.8-1.6 20-2.3 42.9-1.8 65.7-34.3 87.4-64.1 2.2-3.1 6.3-1.5 9.3-0.1 3.7 1.9 7.4 3.8 10.9 6 5.6 3.6 11.1 7.1 16.6 10.8q7.3 5 14.6 10c13.7 9.6 37.1 28.1 50.4 36.2z"/>
			<path class="s1" d="m73.2 1075.8c-0.7-1.5-1.6-2.4-3.2-3.3-23.5-12.2-47.1-26.8-70-41.2v11.3q0.3-0.4 0.7-0.8 0 0.1 0 0.1c6.3 4.7 12.6 9.3 18.9 13.9-2.9 1.5-5.5 3.6-7.5 5.3-5 4.7-8.4 9.1-11.5 15.2q-0.3 0.6-0.6 1.3v2.4h8.1c3.4-3.9 6.7-7.1 10.8-10.4q1-0.8 2-1.6c1.8-1.5 4.8-3.8 7.2-6.3 7.5 5.3 15.1 10.4 22.9 15.2-2.1 0.9-4.2 2-6.1 3.1h28.9c0.2-1.5 0.1-2.7-0.6-4.2z"/>
			<path fill-rule="evenodd" class="s1" d="m625.1 115.7c30.3 18.9 61.9 39.6 93.6 56 1.5 0.9 2.5 1.9 3.2 3.4 0.7 1.6 0.8 2.9 0.5 4.5-0.4 1.7-1.2 2.8-2.5 3.9-1.4 1.1-2.6 1.6-4.4 1.7-2.4 0.2-5.3 1.2-7.6 2.1-0.1 0.1-0.3 0.2-0.4 0.2-4.8 1.9-8.8 4-13.1 6.6-5.2 3.2-9.3 6.3-13.7 10.3-1.9 1.9-8.2 9.8-12 12.7-0.8 0.7-1.6 1.1-2.1 1.1-1.4-0.9-1.2-3.8-1.1-5.1 0.6-5.6 3.3-10.6 6.5-15.2 4.3-5.8 8.6-9.8 14.5-14.2 4.4-3.1 8.5-5.4 13.2-7.6-7.8-4.8-15.4-9.9-23-15.1-2.3 2.5-5.3 4.7-7.2 6.2q-1 0.8-2 1.6c-4.3 3.5-7.7 6.9-11.4 11.2-2.8 3.5-5.1 6.8-7.5 10.6l-0.1 0.3c-0.7 1.2-1.4 2.6-2.2 3.8-0.2 0.4-0.4 0.8-0.7 1.1-0.5 0.7-1.1 1.2-1.6 1.1q-0.4-0.1-0.7-0.5v-0.3c0-0.6 0-1.1 0.1-1.7 0.1-1.7 0.4-3.2 0.8-4.8 0.7-3.3 1.6-6.1 2.9-9.3 0.6-1.6 1.4-3.2 2.2-4.7 3.1-6.1 6.4-10.6 11.5-15.3 1.9-1.7 4.6-3.7 7.5-5.3-6.4-4.6-12.7-9.2-18.9-13.9q0 0-0.1 0c-2.4 2.8-5.9 5.4-7.9 7.1q-1 0.8-2 1.6c-4.4 3.5-7.8 6.9-11.4 11.1-2.9 3.5-5.2 6.8-7.5 10.7l-0.2 0.2c-0.7 1.3-1.4 2.6-2.2 3.8-0.2 0.4-0.4 0.8-0.7 1.2-0.5 0.7-1 1.2-1.6 1q-0.4 0-0.7-0.4v-0.3c0-0.6 0-1.1 0.1-1.7 0.1-1.7 0.4-3.2 0.8-4.9 0.7-3.3 1.7-6.1 2.9-9.2 0.7-1.7 1.4-3.2 2.2-4.8 3.1-6.1 6.5-10.5 11.5-15.2 2.3-2 5.6-4.5 9.1-6.1-12.1-9.6-30.9-24.4-38.8-28.8q-0.7-0.9-1-1.5c-2.8-5.7 22.1 10.2 23.2 10.9zm-46.4-28.6c2.5 2.9 1.6 6.2-2.6 3.4-2.6-2.2-4-4.4-4.9-7.5-4.8-20.1 23.9-27.6 32.1-8.9 2.1 4.8 2.2 9 1.3 14.1-2.2 12.1-7.2 21-9.7 31.5-2.6 10.4-8.6 26.9-14.1 40.2-1.4 3.5-2.5 6.4 0.1 7.4 28.3 10.4 55.5 28.3 77.4 47.9 2.4 2.3 4.8 4.5 7.1 6.9 5.4 5.7 9.6 11.4 12.5 18.5 1.5 4.1 2.5 7.6 2.4 12-0.1 1.9-0.3 3.3-0.9 5.1-0.7 1.7-1.3 2.9-2.5 4.3-2.3 2.6-4.6 3.8-7.9 4.6-3.1 0.7-5.6 0.7-8.7 0.4-3.9-0.5-6.7-2-9.7-4.4-2.7-2.5-4.5-4.9-5.8-8.4-0.6-1.7-0.8-3-0.8-4.8 0.1-1.8 0.4-3.1 1.2-4.7 1-1.5 2-2.5 3.7-3.5 1.5-0.7 5-2.1 6.2-0.2-0.2 0.8-2.2 2.8-2.9 3.9-0.2 0.4-0.4 0.7-0.5 1.1-0.1 0.2-0.2 0.9-0.2 1.1 0 0.6 0 1.1 0.2 1.6 0.3 0.8 0.5 1.4 1 2.1 1.1 1.7 2.4 2.9 4.1 4.1 1.2 0.7 2.7 1.5 4.1 1.4 1.6 0 3.2-0.1 4.7-0.6 0.6-0.2 1.3-0.4 1.6-0.9 0-0.2 0.2-0.4 0.2-0.6 0.1-0.5 0.1-1 0.1-1.5-0.1-2.6-1-5-2-7.3-2.3-5.3-6-9.8-10-14-21.9-20.9-57.4-46.7-86.6-56.5-0.9-0.2-1.5-0.5-2.2-1-0.7-0.6-1.2-1.2-1.6-2-0.3-0.8-0.5-1.5-0.5-2.3 0.1-0.9 0.2-1.6 0.6-2.4 7.2-12.9 15.2-33.9 20.7-48.1 0.2-0.4 0.4-0.9 0.5-1.3 3.8-10.7 8.8-19.3 11.5-30.8 0.9-3.7 1.1-7-0.3-10.7-4.6-12.2-24.8-9.9-22.3 4.6 0.6 2.6 1.5 4.4 3.4 6.2zm49.8 132.8c7.6 5.1 9.4 15.2 4.1 22.5-5.4 7.4-15.8 9.1-23.4 4-7.6-5.1-9.4-15.2-4.1-22.5 5.3-7.4 15.8-9.1 23.4-4zm-29.8-0.3c-5.3 7.3-15.8 9.1-23.4 3.9-7.5-5.1-9.4-15.2-4.1-22.5 5.4-7.3 15.8-9.1 23.4-4 7.6 5.2 9.4 15.2 4.1 22.6z"/>
			<path fill-rule="evenodd" class="s1" d="m838.8 585c29.6-19.8 61.4-40.2 89.2-62.2 1.4-1.1 2.7-1.5 4.5-1.6 1.7 0 3 0.3 4.5 1.3 1.4 1 2.2 2 2.8 3.7 0.5 1.6 0.5 2.9-0.1 4.5-0.7 2.3-0.8 5.3-0.8 7.7 0 0.1 0 0.3 0 0.4 0 4.9 0.5 9.3 1.4 14.2 1.1 5.8 2.4 10.6 4.7 16 1 2.5 6.3 11.1 7.6 15.6 0.3 1 0.4 1.8 0.2 2.3-1.4 0.9-4.1-0.4-5.3-1-5.2-2.7-8.9-6.9-12.1-11.5-4-6.1-6.2-11.4-8.1-18.3-1.3-5.1-2-9.7-2.3-14.7-7.6 5.1-15.4 10-23.2 14.7 1.5 3.1 2.5 6.6 3.2 8.8q0.4 1.2 0.8 2.4c1.7 5.2 3.7 9.5 6.4 14.4 2.2 3.9 4.5 7.2 7.3 10.7l0.2 0.3c1 1.1 2 2.2 2.8 3.4 0.3 0.3 0.6 0.7 0.9 1.1 0.4 0.6 0.7 1.3 0.4 1.8q-0.2 0.3-0.7 0.4l-0.3-0.1c-0.6-0.2-1.1-0.4-1.6-0.7-1.6-0.7-2.9-1.6-4.4-2.6-2.8-1.9-5.2-3.8-7.8-6.1-1.3-1.2-2.5-2.4-3.7-3.8-4.6-5-7.7-9.7-10.2-16-0.9-2.4-1.8-5.5-2.3-8.7-6.8 3.9-13.6 7.8-20.5 11.6q0 0 0 0c1.8 3.3 2.9 7.4 3.8 9.8q0.3 1.2 0.7 2.4c1.7 5.2 3.7 9.5 6.4 14.4 2.3 3.9 4.6 7.2 7.3 10.7l0.3 0.3c0.9 1.1 1.9 2.2 2.7 3.4 0.3 0.3 0.7 0.7 0.9 1.1 0.5 0.6 0.7 1.3 0.4 1.8q-0.2 0.3-0.7 0.4l-0.3-0.1c-0.6-0.2-1.1-0.4-1.6-0.7-1.6-0.8-2.9-1.6-4.3-2.6-2.9-1.9-5.3-3.8-7.8-6.1-1.3-1.2-2.5-2.4-3.7-3.8-4.7-5-7.7-9.7-10.3-16-1-2.8-2.1-6.7-2.4-10.4-13.7 7.2-35.1 18.3-42.3 23.7q-1.1 0.2-1.8 0.3c-6.6 0.3 18.1-15.9 19.2-16.6zm-45 30.5c3.7-1.1 6.5 1 2.3 3.7-3.1 1.5-5.7 1.8-9.1 1.5-21.1-3.3-17.4-31.8 3.7-32 5.4-0.1 9.4 1.4 14 4.1 10.8 6.6 17.4 14.5 26.5 20.7 9 6.2 22.5 17.9 33.2 27.8 2.8 2.6 5.2 4.7 7.1 2.7 20.7-21.3 48.2-38.7 75.4-50.8 3.1-1.3 6.2-2.6 9.4-3.7 7.4-2.7 14.5-4.3 22.4-4.1 4.5 0.2 8.3 0.7 12.4 2.4 1.8 0.8 3.1 1.5 4.6 2.7 1.4 1.2 2.3 2.3 3.2 3.9 1.5 3 1.8 5.5 1.4 8.8-0.6 3-1.5 5.2-2.9 7.9-2 3.3-4.5 5.2-8 6.9-3.4 1.5-6.4 2.2-10.2 2.1-1.9-0.2-3.3-0.5-5-1.2-1.6-0.7-2.8-1.5-3.9-2.8-1.2-1.5-1.7-2.8-2-4.6-0.1-1.6-0.2-5.4 2.1-5.6 0.7 0.4 1.9 3 2.7 4 0.3 0.3 0.5 0.6 0.8 0.9 0.2 0.1 0.8 0.5 1 0.6 0.5 0.2 1 0.3 1.7 0.4 0.8 0.1 1.5 0 2.3-0.1 2-0.3 3.7-1 5.5-2.1 1.1-0.8 2.4-1.8 2.9-3.1 0.6-1.5 1.1-2.9 1.2-4.5 0.1-0.5 0.1-1.2-0.3-1.7-0.1-0.1-0.3-0.3-0.4-0.4-0.5-0.3-0.9-0.5-1.4-0.7-2.5-0.8-5.2-1-7.8-1-5.9 0.1-11.7 1.6-17.2 3.7-28.4 11.5-66.7 33.4-87.1 55.8-0.5 0.7-1.1 1.1-1.9 1.5-0.8 0.4-1.5 0.6-2.4 0.7-0.9 0-1.6-0.1-2.5-0.5-0.8-0.3-1.4-0.8-2-1.4-9.6-11.3-26.8-26.4-38.3-36.8-0.3-0.2-0.7-0.6-1-0.9-8.9-7.4-15.2-15.2-25.2-21.9-3.3-2.2-6.3-3.7-10.4-3.8-13.5-0.5-19 18.3-4 21.6 2.6 0.5 4.7 0.3 7.2-0.7zm169.4 11c5 7.5 2.8 17.5-5 22.4-7.9 4.8-18.2 2.6-23.2-4.9-5-7.6-2.8-17.6 5.1-22.4 7.8-4.8 18.1-2.6 23.1 4.9zm-57.9 16.6c7.8-4.8 18.1-2.6 23.1 4.9 5 7.5 2.8 17.5-5 22.4-7.9 4.8-18.2 2.6-23.2-4.9-5-7.6-2.8-17.6 5-22.4z"/>
			<path fill-rule="evenodd" class="s1" d="m470.2 654.1c32.6-14.8 67.4-29.8 98.6-47.1 1.6-0.8 2.9-1.1 4.7-0.9 1.7 0.3 2.9 0.8 4.2 2 1.3 1.2 1.9 2.4 2.2 4.1 0.2 1.7-0.1 3-0.9 4.5-1.1 2.1-1.7 5-2.1 7.4 0 0.1-0.1 0.3-0.1 0.4-0.8 4.9-1.1 9.3-1.1 14.2 0.1 5.9 0.7 10.9 1.9 16.6 0.6 2.6 4.3 11.9 4.9 16.6 0.1 1 0.1 1.8-0.2 2.2-1.5 0.7-3.9-1-5.1-1.8-4.6-3.4-7.5-8.2-9.9-13.3-2.9-6.6-4.2-12.2-4.9-19.3-0.4-5.3-0.4-9.8 0.3-14.9-8.4 3.9-16.9 7.5-25.5 10.9 1 3.2 1.4 6.9 1.8 9.2q0.1 1.2 0.3 2.4c0.8 5.5 2 10.1 3.8 15.3 1.6 4.2 3.3 7.8 5.4 11.7l0.2 0.3c0.7 1.2 1.6 2.5 2.2 3.8 0.2 0.4 0.5 0.8 0.6 1.2 0.4 0.7 0.5 1.5 0.1 1.9q-0.2 0.2-0.8 0.3l-0.2-0.2c-0.6-0.3-1-0.6-1.5-0.9-1.4-1-2.6-2.1-3.8-3.3-2.5-2.3-4.5-4.5-6.7-7.2-1.1-1.4-2-2.8-3-4.3-3.7-5.8-5.9-10.9-7.3-17.5-0.5-2.5-0.9-5.7-0.8-8.9-7.3 2.8-14.8 5.5-22.2 8.1q0 0.1 0 0.1c1.2 3.5 1.6 7.7 2 10.2q0.2 1.3 0.4 2.5c0.8 5.4 2 10 3.8 15.3 1.6 4.1 3.2 7.8 5.4 11.7l0.2 0.3c0.7 1.2 1.5 2.5 2.1 3.8 0.3 0.3 0.5 0.7 0.7 1.2 0.3 0.7 0.5 1.4 0.1 1.8q-0.3 0.3-0.8 0.4l-0.3-0.2c-0.5-0.3-0.9-0.6-1.4-1-1.4-1-2.6-2-3.8-3.2-2.6-2.3-4.6-4.6-6.7-7.3-1.1-1.4-2.1-2.8-3-4.3-3.7-5.7-5.9-10.8-7.4-17.5-0.5-2.9-1-6.9-0.6-10.6-14.8 4.9-37.8 12.4-45.8 16.6q-1.1 0.1-1.8 0c-6.6-0.7 20.6-12.7 21.8-13.3zm-49.6 23c3.8-0.5 6.3 2 1.6 4-3.3 1-5.9 0.9-9.2 0-20.2-6.6-11.7-34.1 9.1-31 5.3 0.8 9.1 3 13.1 6.4 9.5 8.2 14.7 17 22.7 24.6 7.7 7.6 19.1 21.2 27.9 32.7 2.4 3 4.3 5.4 6.6 3.8 24-17.7 54.1-30.5 83-38.1 3.3-0.9 6.5-1.6 9.9-2.3 7.8-1.4 15-1.8 22.8-0.4 4.4 0.9 8 2 11.8 4.3 1.7 1.1 2.8 2 4.1 3.5 1.1 1.4 1.9 2.6 2.5 4.3 1 3.2 0.9 5.7-0.1 8.9-1.1 2.8-2.4 4.9-4.3 7.3-2.5 2.9-5.3 4.4-9 5.6-3.7 0.9-6.7 1.1-10.5 0.4-1.7-0.5-3.1-1-4.6-1.9-1.6-1-2.5-2-3.5-3.5-0.8-1.6-1.2-3-1.1-4.8 0.1-1.6 0.7-5.3 3-5.3 0.6 0.6 1.4 3.3 2 4.5 0.2 0.4 0.4 0.6 0.7 1 0.1 0.1 0.6 0.6 0.8 0.7 0.5 0.4 1 0.5 1.6 0.7 0.8 0.2 1.4 0.3 2.3 0.3 2.1 0 3.8-0.4 5.8-1.3 1.2-0.5 2.7-1.3 3.4-2.5 0.8-1.4 1.6-2.7 2-4.2 0.1-0.6 0.2-1.3-0.1-1.8-0.1-0.1-0.2-0.4-0.3-0.5-0.4-0.4-0.8-0.6-1.3-0.9-2.3-1.2-4.9-1.8-7.5-2.2-5.9-0.8-11.8-0.2-17.6 0.9-30 6.9-71.5 22.4-95.4 41.2-0.7 0.6-1.3 0.9-2.1 1.2-0.9 0.3-1.6 0.4-2.5 0.3-1-0.2-1.6-0.4-2.4-0.9-0.8-0.5-1.3-1-1.8-1.7-7.5-12.7-21.9-30.3-31.5-42.3-0.2-0.4-0.6-0.8-0.8-1.1-7.5-8.7-12.4-17.4-21.1-25.6-2.8-2.7-5.6-4.6-9.6-5.4-13.2-2.7-21.8 15-7.6 20.7 2.5 0.8 4.5 1 7.2 0.4zm165.2 37.8c3.7 8.2-0.3 17.7-8.8 21.2-8.5 3.5-18.4-0.3-22-8.5-3.7-8.2 0.3-17.7 8.8-21.3 8.5-3.5 18.4 0.4 22 8.6zm-38 15.6c3.7 8.3-0.3 17.8-8.8 21.3-8.5 3.5-18.4-0.3-22-8.5-3.7-8.3 0.3-17.8 8.8-21.3 8.5-3.5 18.4 0.3 22 8.5z"/>
			<path fill-rule="evenodd" class="s1" d="m175 823.6c-35.7-4.8-73.4-10.7-109.3-12.7-1.8-0.1-3.1-0.6-4.4-1.7-1.3-1.2-2-2.3-2.4-3.9-0.4-1.7-0.2-3 0.5-4.6 0.8-1.5 1.7-2.5 3.3-3.3 2.1-1.2 4.3-3.3 5.9-5 0.1-0.1 0.3-0.3 0.3-0.4 3.5-3.6 6.3-7.1 9-11.3 3.3-5 5.7-9.4 7.9-14.9 0.9-2.4 3.1-12.2 5.3-16.4 0.5-0.9 1-1.6 1.5-1.8 1.6 0.3 2.7 2.9 3.2 4.2 1.9 5.3 1.6 10.9 0.7 16.4-1.3 7-3.4 12.4-6.9 18.7-2.6 4.6-5.3 8.4-8.6 12.3 9.2 1.2 18.3 2.7 27.4 4.4 1.1-3.2 2.8-6.5 3.8-8.6q0.6-1.1 1.1-2.2c2.4-5 4-9.5 5.5-14.8 1-4.4 1.7-8.3 2.1-12.7l0.1-0.3c0-1.5 0.1-3 0.3-4.4 0-0.4 0-0.9 0.1-1.3 0.2-0.8 0.5-1.5 1-1.6q0.4-0.1 0.9 0.1l0.1 0.3c0.2 0.5 0.4 1 0.7 1.6 0.6 1.6 1 3 1.3 4.7 0.8 3.3 1.2 6.2 1.4 9.6 0.2 1.8 0.2 3.4 0.1 5.2-0.1 6.8-1.2 12.2-3.8 18.5-1 2.3-2.5 5.3-4.4 7.9 7.7 1.5 15.5 3.2 23.2 4.9q0 0 0.1 0c0.9-3.6 3-7.4 4.1-9.7q0.5-1.1 1.1-2.2c2.4-5 4-9.5 5.5-14.8 1-4.3 1.7-8.3 2.1-12.7v-0.3c0.1-1.4 0.2-3 0.4-4.3 0-0.5 0-0.9 0.1-1.4 0.1-0.8 0.4-1.5 1-1.6q0.3-0.1 0.8 0.1l0.1 0.3c0.3 0.6 0.5 1 0.7 1.6 0.6 1.6 1 3.1 1.4 4.7 0.8 3.3 1.2 6.2 1.4 9.6 0.1 1.8 0.1 3.4 0.1 5.2-0.2 6.8-1.2 12.2-3.8 18.5-1.2 2.7-3.1 6.3-5.5 9.2 15.1 3.7 38.7 9.6 47.7 10.4q1 0.5 1.5 0.9c5.1 4.1-24.4-0.2-25.7-0.4zm54.6 7c-3.6-1.6-4.2-5 0.8-4.2 3.3 1 5.5 2.4 7.8 4.9 13.1 16.2-9.6 34.7-25.3 21.1-4-3.5-5.9-7.3-7.3-12.2-3.4-12-2.6-22-5-32.6-2.1-10.4-3.9-27.9-4.8-42.2-0.2-3.7-0.5-6.8-3.3-6.6-30.2 2.1-62.7-3.1-91.1-12-3.3-1-6.4-2.1-9.5-3.3-7.4-3-13.7-6.4-19.4-11.7-3.2-3.1-5.6-5.9-7.4-9.9-0.8-1.8-1.2-3.2-1.5-5-0.1-1.8 0-3.2 0.4-5 1-3.2 2.5-5.2 5.2-7.3 2.5-1.9 4.7-2.9 7.7-3.9 3.8-1.1 6.9-0.9 10.7 0.1 3.6 1.1 6.3 2.6 8.9 5.2 1.3 1.3 2.1 2.4 2.9 4 0.7 1.7 1 3 0.9 4.8-0.2 1.8-0.7 3.1-1.8 4.6-1 1.2-3.6 4-5.5 2.8-0.2-0.8 0.7-3.5 0.8-4.8 0.1-0.4 0.1-0.8 0.1-1.2-0.1-0.2-0.2-0.9-0.3-1-0.3-0.6-0.5-1-1-1.4-0.5-0.6-1-1-1.7-1.5-1.8-1.1-3.5-1.7-5.5-2-1.4-0.2-3.1-0.3-4.4 0.3-1.5 0.7-2.8 1.4-4 2.5-0.4 0.4-0.9 0.9-1 1.5 0 0.2 0 0.4 0 0.6 0.2 0.5 0.3 0.9 0.6 1.4 1.2 2.3 3.1 4.1 5 5.8 4.4 3.8 9.7 6.5 15.2 8.6 29 10.1 72.5 19 103.2 16 0.9-0.2 1.6-0.2 2.5 0 0.9 0.3 1.5 0.6 2.3 1.2 0.6 0.6 1.1 1.1 1.5 1.9 0.3 0.8 0.4 1.5 0.4 2.4-0.9 14.6 1.1 37 2.3 52.1 0.1 0.4 0.1 0.9 0.1 1.3 1.3 11.2 0.5 21.1 3.1 32.6 0.8 3.8 2.1 6.8 4.9 9.6 9.6 9.2 26.9-1.1 18.2-13.3-1.6-2.1-3.2-3.3-5.8-4.2zm-103.2-100.1c-9.1-1.6-15.2-10-13.6-18.8 1.7-8.8 10.4-14.7 19.5-13.1 9.1 1.6 15.2 10 13.6 18.8-1.6 8.8-10.3 14.6-19.5 13.1zm40.7 7c-9.1-1.6-15.2-10-13.6-18.8 1.7-8.8 10.4-14.7 19.5-13.1 9.1 1.5 15.2 10 13.6 18.8-1.6 8.8-10.4 14.6-19.5 13.1z"/>
			<path class="s1" d="m1052 1060.8c5.5-13.3 11.5-29.9 14.1-40.2 2.5-10.6 7.5-19.4 9.7-31.6 0.9-5.1 0.8-9.2-1.3-14-8.2-18.8-36.9-11.2-32.1 8.8 0.9 3.2 2.3 5.4 4.9 7.6 4.2 2.8 5.1-0.6 2.6-3.5-1.9-1.8-2.8-3.6-3.4-6.1-2.5-14.6 17.7-16.9 22.3-4.6 1.4 3.6 1.2 6.9 0.3 10.7-2.7 11.4-7.8 20.1-11.5 30.8-0.1 0.3-0.3 0.9-0.5 1.2-5.5 14.2-13.5 35.3-20.7 48.2-0.4 0.7-0.6 1.4-0.6 2.3 0 0.9 0.1 1.6 0.5 2.4 0.4 0.8 0.9 1.3 1.5 1.9 0.8 0.6 1.4 0.9 2.3 1.1 3.5 1.2 7.1 2.6 10.8 4.2h27.4c-8.5-4.6-17.3-8.6-26.2-11.9-2.6-0.9-1.5-3.8-0.1-7.3z"/>
			<path class="s1" d="m1119.8 1080v-2.4q-0.5 1.2-1.1 2.4z"/>
			<path class="s1" d="m1073.1 1005.7q0.3 0.6 1 1.4c7.9 4.4 26.6 19.3 38.8 28.8-3.5 1.6-6.8 4.2-9.1 6.1-5.1 4.7-8.4 9.2-11.5 15.3-0.8 1.5-1.5 3.1-2.2 4.7-1.3 3.2-2.2 6-2.9 9.3-0.4 1.6-0.7 3.1-0.8 4.8-0.1 0.6-0.1 1.1-0.1 1.7v0.3q0.3 0.4 0.7 0.5c0.5 0.1 1.1-0.4 1.6-1.1 0.3-0.3 0.5-0.7 0.7-1.1 0.8-1.2 1.5-2.6 2.2-3.8l0.2-0.3c2.3-3.8 4.6-7.1 7.4-10.6 3.7-4.3 7.1-7.7 11.5-11.2q1-0.8 2-1.6c1.8-1.5 4.9-3.8 7.3-6.4v-11.2c-8-5-15.8-10-23.6-14.8-1.1-0.7-26-16.6-23.2-10.8z"/>
			<path class="s1" d="m506.5 1046.3c-8.5-14.5-18.9-25.6-27.6-41.2-6.3-12.2-16.5 4.7-19.2 9.1-5 8.5-9.9 17.1-14.6 25.7-2.6 4.8-5.2 9.5-7.8 14.3-0.2 0.3-7.7 14.3-13.1 25.8h5.4c7.6-12.7 18.3-28.7 22.9-36 5.3-8.2 10.7-16.4 16.4-24.3 2.4-3.5 1.7-6.3 6.2 0.5 4.8 7.2 10 14.5 16.2 26.9 1.4 1.2 0.9 1.8-0.1 4.4 0 0-11.4 21.6-15.1 28.5h18.9c5-9.5 10.7-21.3 12.3-28.5 0.3-1.9 0.1-3.4-0.8-5.2z"/>
			<path class="s1" d="m549.3 1050.7c-7.2-3.7-16.4-0.5-20.6 7.1-4.2 7.6-1.8 16.7 5.4 20.4 7.1 3.7 16.4 0.5 20.6-7.1 4.2-7.6 1.7-16.8-5.4-20.4zm-7.4 16.4c-1.7 3-5.3 4.3-8.1 2.8-2.9-1.4-3.8-5-2.2-8 1.7-3 5.3-4.3 8.2-2.8 2.8 1.4 3.7 5 2.1 8z"/>
			<path class="s1" d="m517.7 1075.4c-3 1.2-5.9 2.8-8.7 4.6h9.5c3.1-2.4 6.5-4.4 8.9-4.7 3.8-4-8.2-0.5-9.6 0z"/>
			<path fill-rule="evenodd" class="s1" d="m698.5 478.3c3.2 8-0.4 16.8-8 19.6-7.6 2.8-16.4-1.5-19.5-9.6-3.2-8 0.4-16.8 8-19.6 7.6-2.8 16.4 1.5 19.5 9.6zm29 73.7c3.1 8.1-0.5 16.9-8.1 19.6-7.6 2.8-16.3-1.5-19.5-9.5-3.1-8.1 0.5-16.9 8.1-19.6 7.6-2.8 16.3 1.5 19.5 9.5zm-5.2-0.5c-1.2-3.2-4.7-4.9-7.7-3.8-3 1.1-4.4 4.6-3.1 7.7 1.2 3.2 4.6 4.9 7.6 3.8 3-1.1 4.5-4.5 3.2-7.7zm47.6-99.7c-1.3-18.4 20.4 35.7 20.7 36.4 2 5 3.9 10 5.9 15 3.6 9.1 7.1 18.4 10.4 27.6 1.7 4.9 8.1 23.3-5.6 19.9-17.8-4-33.4-3.8-50.3-7.2-1.9-0.5-3.2-1.3-4.5-2.8-6.3-8.3-14.2-27.7-18.3-37.6-3.2-7.8-6.2-15.6-9-23.6-1-3-2-6.1-2.8-9.2-2.8-11.7 1.2-12.6 9.7-19.7 15.3-12.8 29.8-24.9 46.1-36.2 4-2.7 4.9-3 3.8-7.4-2.3-8.8-7.2-19.3-3.7-21.8 2.1 0.1 4.7 4 5.7 5.5 4.3 6.4 7.9 14.5 11 21.5 0.7 1.8 0.8 3.2 0.3 5.1-0.6 1.8-1.4 3-2.9 4.2-15.2 13-30.8 27.7-46.4 40.7-3.1 2.5-6.2 6.1-3.9 12.1 2.4 7.7 5.1 15.3 7.9 22.9 1.1 2.9 13.1 31.8 13.1 31.8 1.4 2.4 1.5 3.2 3.4 3 13.7 3.7 22.8 4.7 31.6 6 8.2 1.2 5.6-0.1 4.5-4.2-2.4-9.4-5.3-18.6-8.2-27.9-3.7-11.5-13-43.3-18.5-54.1zm-55.3 87.7c1.6-2.1 2.2-6.6 2.3-10.9 0.3-6.8-0.7-21.3-3.2-26.4-1.7-3.4-4.7-6.9-9.6-2.7-0.5 0.4-1.8 1.3-2.5 1-3.4-1.8-1.3-8.9 0-11.5 1-1.4 2-2.4 3.5-3.2 1.6-0.9 3.1-1.2 4.9-1 1.8 0.2 3.1 0.7 4.5 1.7 0.9 0.6 1.6 1.2 2.3 2 0.3 0.4 0.6 0.7 0.8 1.1 1.9 2.6 3 5.2 4 8.2 3.1 11 2.9 23.8-0.6 34.7-0.5 1.4-5.7 12.4-6.4 7zm-21.2-61.8c-1.3-3.1-4.7-4.8-7.7-3.7-3 1.1-4.4 4.5-3.2 7.7 1.3 3.2 4.7 4.8 7.7 3.8 3-1.1 4.4-4.6 3.2-7.8z"/>
			<path fill-rule="evenodd" class="s1" d="m56 135.7c3.7 7.8 0.7 16.8-6.6 20.1-7.4 3.3-16.5-0.4-20.2-8.2-3.7-7.8-0.8-16.9 6.6-20.1 7.4-3.3 16.4 0.4 20.2 8.2zm34.2 71.6c3.7 7.8 0.8 16.8-6.6 20.1-7.4 3.3-16.4-0.4-20.2-8.2-3.7-7.8-0.8-16.8 6.6-20.1 7.4-3.3 16.4 0.4 20.2 8.2zm-5.2-0.2c-1.5-3.1-5-4.5-8-3.2-2.9 1.3-4 4.8-2.6 7.9 1.5 3.1 5.1 4.5 8 3.2 2.9-1.3 4.1-4.8 2.6-7.9zm40.2-102.6c-2.6-18.3 23 34.2 23.3 34.9 2.4 4.8 4.7 9.7 7 14.6 4.3 8.8 8.4 17.8 12.4 26.7 2 4.8 9.8 22.8-4.2 20.3-18-2.8-33.6-1.5-50.6-3.8-2-0.3-3.4-1.1-4.8-2.5-6.9-7.8-16.1-26.7-20.9-36.3-3.8-7.6-7.4-15.1-10.7-22.9-1.2-2.9-2.4-5.9-3.4-8.9-3.8-11.6 0.2-12.8 8.1-20.4 14.4-13.8 28-26.8 43.5-39.2 3.7-3 4.6-3.3 3.2-7.6-2.9-8.6-8.6-18.8-5.3-21.5 2.1 0 5 3.6 6.1 5.1 4.8 6.1 9 13.9 12.6 20.7 0.8 1.7 0.9 3.2 0.6 5-0.4 1.8-1.2 3.1-2.5 4.4-14.2 14-28.8 29.8-43.4 43.7-2.9 2.8-5.8 6.6-3 12.4 3 7.5 6.2 14.9 9.5 22.3 1.3 2.8 15.4 30.8 15.4 30.9 1.5 2.3 1.7 3.1 3.6 2.7 13.9 2.7 23.1 3.1 32 3.8 8.2 0.7 5.5-0.4 4.1-4.4-3.1-9.2-6.6-18.3-10.1-27.3-4.6-11.3-16.1-42.3-22.5-52.7zm-48.7 91.2c1.4-2.2 1.6-6.8 1.5-11-0.2-6.8-2.3-21.3-5.2-26.2-1.9-3.2-5.1-6.6-9.8-2.1-0.4 0.5-1.6 1.5-2.4 1.3-3.5-1.6-1.8-8.9-0.7-11.6 0.8-1.4 1.7-2.4 3.1-3.4 1.6-1 3-1.4 4.9-1.3 1.8 0.1 3.1 0.5 4.6 1.4 1 0.6 1.7 1.1 2.4 1.9 0.4 0.3 0.6 0.6 1 1 2 2.4 3.3 5 4.5 7.9 3.9 10.8 4.6 23.6 1.9 34.7-0.4 1.4-4.8 12.7-5.9 7.4zm-25.6-60.2c-1.5-3.1-5.1-4.5-8-3.2-2.9 1.2-4 4.8-2.6 7.9 1.5 3.1 5.1 4.5 8 3.2 2.9-1.3 4-4.8 2.6-7.9z"/>
			<path class="s1" d="m945 36.4c-8.8 0-16 6.3-16 14.1 0 7.7 7.2 14 16 14 8.9 0 16-6.3 16-14 0-7.8-7.1-14.1-16-14.1z"/>
			<path class="s1" d="m868.5 28.3c2.1 1.3 3.9 1.9 6.4 1.8 23.8 0.1 81.3 0.8 102.9-6.5 1.9-0.9 4.8-2.1 5.3-4.3q-0.6-1.5-2-2.7c-10.9-9.7-57.7-8.7-67.8-8.6-10.5 0.2-21 0.7-31.5 1.3-1.7-4.4-2.6-6.3-3.9-9.3h-20.2q3.3 11.6 6.8 23.2c0.8 2.2 2 3.7 4 5.1z"/>
			<path class="s1" d="m892.6 36.4c-8.8 0-16 6.3-16 14.1 0 7.7 7.2 14 16 14 8.9 0 16-6.3 16-14 0-7.8-7.1-14.1-16-14.1z"/>
			<path class="s1" d="m281.4 96.5c-6.9 0-12.5 5-12.5 11.1 0 6.1 5.6 11 12.5 11 7 0 12.6-4.9 12.6-11 0-6.1-5.6-11.1-12.6-11.1zm-0.4 15c-3.3 0-6-2.3-6-5.2 0-3 2.7-5.3 6-5.3 3.3 0 6 2.3 6 5.3 0 2.9-2.7 5.2-6 5.2z"/>
			<path class="s1" d="m324.5 6.3c-0.5-4.1-5.2-3.7-8.4-3.8-4.1-0.1-8.3-0.2-12.4-0.2-12.7-0.1-25.5-0.3-38.3-0.3-8.4 0-16.8 0-25.3 0.1-0.9 0-49 1.3-36.2 3.9 4.6-0.9 20-0.7 34.5-0.3-0.1 3.1-0.7 14.5-0.7 15.4-0.1 2.4 0 7.8 0.3 14q-3.2 0.1-6.3 0.2c-0.9 0-4.1 0-6.7 0.3-1.6-6.2-3.2-12.5-5.1-18.4-0.4-1.2-1.8-5.7-3-6.3-3.5 0.6 2 33 2.5 35.7 0.7 4.2 1.8 8.5 2.9 12.6 0.4 1.4 0.9 2.7 1.4 4.1 0.2 0.6 0.6 1.1 1 1.7 0.2 0.3 0.5 0.6 0.8 0.9 0.6 0.6 1.1 0.9 1.9 1.1 9.2 2.7 21.4 2.8 31 2.9 8.9 0 17.8-0.2 26.7-0.3 7.1 0 16.3 0.3 23.2-0.4 1.2-0.2 2.2-0.4 3.3-0.8 1.3-0.4 2.2-0.9 3.1-1.9 1-0.9 1.5-1.8 1.8-3.1 0.3-1 0.4-1.8 0.4-2.8 0.3-7.9 7.5-51.4 7.3-52.2 0.3-0.7 0.4-1.3 0.3-2.1zm-92.5 53.3c0 0 0.2 0.5 0.1 0.3-0.1-0.1-0.3-0.4-0.4-0.5-0.5-0.4-1-0.7-1.7-0.9q0.8 0.2 1.7 0.3-0.5-1.1-0.9-2.2c-1.3-3.9-2.4-7.8-3.4-11.8q-1-3.4-1.9-6.9c3.3 0.2 8.3 0.7 12.8 1.1 0.5 7.7 1.5 15.9 3.2 21.1-3.6-0.3-6.9-0.7-9.8-1.3q0.1 0.4 0.3 0.8zm16.1 0.8c0.4-4.1-0.4-9.5-0.6-11.1q-0.7-4.8-1.5-9.6c0.9 0.1 1.5 0.2 1.7 0.2 2.2 0.2 6 0.4 10.7 0.6 0.1 7.6 0.6 15.4 2 20.1-4.2 0-8.3 0-12.3-0.2zm10.9-39.3c-0.2 2.3-0.5 7.4-0.6 13.3q-6.6 0.3-13.2 0.5c-1.3-8-2.6-15.9-3.8-23.9-0.1-0.7-0.5-3.5-1.1-5.3 7.9 0.3 15.4 0.6 20.3 0.8-0.3 3.8-1.5 13.7-1.6 14.6zm7.8 39.5c0.7-4.1 0.3-9.7 0.2-11.3q-0.4-4.2-0.8-8.5c3.8 0.2 7.8 0.3 11.9 0.4-0.2 7.2 0 14.6 1.1 19.2-3.8 0.1-8.1 0.1-12.4 0.2zm12.7-39.5c-0.3 2.2-0.8 7-1.1 12.6q-6.4 0.3-12.8 0.5c-0.8-7.7-1.6-15.4-2.2-23.2-0.1-0.6-0.2-2.8-0.6-4.5q1.6 0.1 2.6 0.1 8.1 0.3 16.1 0.7c-0.6 4.3-1.9 13-2 13.8zm14.6 39.5c-2.9-0.1-5.8-0.2-8.4-0.2 0.9-4.1 0.7-9.5 0.6-11.1q-0.2-4-0.4-8c3 0 6-0.1 8.9-0.1-0.9 7.3-1.4 14.8-0.7 19.4zm1.7-27.4c-1.3 0.1-2.4 0.1-3.1 0.1q-3.6 0.1-7.2 0.2c-0.5-7.5-0.9-15-1.3-22.5 0-0.5 0-2.1-0.2-3.6q7.1 0.4 14.3 0.8 1.4 0.1 2.7 0.2c-1 4.5-2.9 12-3.1 12.7-0.4 2.2-1.3 6.7-2.1 12.1zm12.8 27c0.1 0-0.2 0.2-0.3 0.3-0.2 0.2-0.3 0.4-0.4 0.6l0.1-0.6q0-0.1 0-0.1-0.4 0-0.8 0.1c-2.1 0.1-4.3 0.2-6.7 0.2 1.3-4.2 1.6-9.8 1.7-11.4q0.2-4.2 0.4-8.4c3.1-0.2 5.9-0.5 8.2-0.8-1.3 8.3-2.4 16-2.8 20.3q0.3-0.1 0.6-0.2zm6.9-46c-1.6 5.6-2.5 12.8-3.7 19.9-2.7-0.5-5.9-0.7-9-0.8 0.2-7.4 0.5-14.8 0.8-22.3 0-0.4 0.1-1.4 0.1-2.5 4.1 0.2 8.1 0.7 12.1 0.7 1.2 0 0.5 2-0.3 5z"/>
			<path class="s1" d="m197.6 56.2c2.4 6.1 4.7 11.6 8.1 17.2 3.1 5 5.9 8.3 10.7 11.8 4.8 3.2 8.9 4.7 14.5 6 6.3 1.3 12.1 1.6 18.5 1.8 6.9 0.1 13.7-0.1 20.6-0.2 2.7-0.1 51.2-0.2 32.7-4.8-14.2 0.4-38.9-2-52.8-3.6-4.3-0.5-9.1-1.2-13.3-2.3q-1.5-0.4-3-0.9c-4-1.2-6.8-2.5-9.9-5.1-3.1-2.7-4.8-5.3-6.7-8.8-2.5-5.1-4.2-10.2-5.9-15.6-4.8-17.3-9.1-34.4-14.1-51.7h-16.7q1.3 4.9 2.7 9.7c4.4 15.6 9 31.2 14.6 46.5z"/>
			<path class="s1" d="m235.6 96.5c-6.9 0-12.5 5-12.5 11.1 0 6.1 5.6 11 12.5 11 7 0 12.6-4.9 12.6-11 0-6.1-5.6-11.1-12.6-11.1zm-0.4 15c-3.3 0-6-2.3-6-5.2 0-3 2.7-5.3 6-5.3 3.3 0 6 2.3 6 5.3 0 2.9-2.7 5.2-6 5.2z"/>
			<path class="s1" d="m634.9 21c-4.6-2.9-10.9-1.2-14.2 3.7-3.2 4.9-2.1 11.1 2.5 14 4.6 2.8 10.9 1.1 14.1-3.8 3.3-4.9 2.2-11.1-2.4-13.9z"/>
			<path class="s1" d="m682.2 50c-4.6-2.8-10.9-1.1-14.2 3.8-3.2 4.9-2.1 11.1 2.5 13.9 4.5 2.9 10.9 1.2 14.1-3.7 3.3-4.9 2.2-11.1-2.4-14z"/>
			<path class="s1" d="m627.3 14.4c0.8-4 1.8-8.9 3-14.4h-2.9c-0.1 5.1-0.2 10-0.1 14.4z"/>
			<path class="s1" d="m648.5 0.7c1.6-0.1 3.5-0.4 5.5-0.7h-11.6c0 0.8 1.6 1.1 6.1 0.7z"/>
			<path class="s1" d="m661.5 15.4c1 0.5 30-2.1 53.2-4.1-8.4 3-16.8 6-25 9.7-6.6 3.1-3.9 8.5 1.3 8.4 9-0.7 18.2-2 27.2-3.6 0.5-0.1 7.9-1.4 7.9-2.1-0.3-0.5-1-0.8-2.2-1-3.4-0.8-10-0.8-16.5-0.7 12.2-3.9 24.3-7.6 36.3-12.4 9.7-4.6 9.2-9.1-1.3-9-0.2-0.2-9.5 0.4-10.4 0.5-17.4 1.3-34.8 3.3-52.2 4.9 4.4-2.1 8.9-4 13.4-6h-18c-5.2 2.3-10.4 4.7-15.4 7.5-6.4 4.1-2.4 7.9 1.7 7.9z"/>
			<path class="s1" d="m760.3 9.2c-8.6 7.2-18.9 14.7-26.6 20.7q-9.7 7.5-19.5 15-1.4 1.1-2.9 2.2c-1.2 0.9-3.2 2.1-5.4 0.7-7.3-4.5-20.5-11.3-27.4-15.3-1.3-0.7-57.4-33.8-39.8-17.8 12.4 6.8 37.1 24.4 53.8 34.9 10.6 6.6 15 10.1 20.2 7 2.2-1.4 4.3-3 6.5-4.5q4-2.7 8-5.4 6.2-4.3 12.3-8.6c11.9-8.4 25.2-17.6 36.6-26.7 3-2.7 5.5-4 6.1-6 0.6-2 0.1-3.7-1.1-5.4h-24.6q1.6 0.9 3.2 1.8c5.3 1.5 2.9 5.5 0.6 7.4z"/>
			<path class="s1" d="m8.1 0h-8.1v11.3c2.3-3.8 4.6-7.1 7.4-10.5q0.4-0.4 0.7-0.8z"/>
			<path class="s1" d="m2 83.4c3 2.5 5.7 3.9 9.6 4.5 3.2 0.3 5.6 0.3 8.7-0.4 3.4-0.9 5.6-2.1 7.9-4.6 1.2-1.4 1.9-2.6 2.5-4.3 0.6-1.8 0.8-3.3 0.9-5.1 0.1-4.4-0.8-7.9-2.4-12-2.9-7.2-7.1-12.8-12.4-18.5-2.4-2.4-4.7-4.6-7.2-6.9q-4.6-4.2-9.6-8.2v18.1q3.6 3.2 6.8 6.3c4.1 4.1 7.7 8.7 10.1 13.9 1 2.4 1.8 4.8 2 7.4 0 0.5 0 1-0.2 1.5 0 0.2-0.1 0.4-0.2 0.5-0.3 0.5-1 0.8-1.5 1-1.6 0.5-3.1 0.6-4.8 0.6-1.4 0-2.9-0.8-4-1.5-1.8-1.1-3.1-2.4-4.2-4.1-0.4-0.7-0.7-1.2-0.9-2-0.2-0.6-0.3-1.1-0.3-1.7 0-0.2 0.2-0.8 0.2-1 0.2-0.4 0.3-0.7 0.6-1.1 0.7-1.1 2.7-3.1 2.8-4-1.1-1.9-4.7-0.4-6.2 0.3q-0.1 0.1-0.2 0.1v19.3q0.9 1 2 1.9z"/>
			<path class="s1" d="m23.3 18.7c-3.1 4.6-5.8 9.5-6.5 15.1-0.1 1.4-0.2 4.2 1.1 5.1 0.6 0 1.3-0.3 2.1-1 3.8-2.9 10.1-10.9 12.1-12.7 4.4-4.1 8.5-7.1 13.6-10.3 4.3-2.7 8.4-4.7 13.1-6.6 0.1-0.1 0.3-0.1 0.4-0.2 2.3-0.9 5.2-1.9 7.6-2.2 1.8-0.1 3.1-0.5 4.4-1.6 1.4-1.1 2.1-2.3 2.5-3.9q0.1-0.2 0.1-0.4h-28.9c-2.4 1.3-4.7 2.8-7.1 4.5-5.9 4.3-10.2 8.3-14.5 14.2z"/>
			<path class="s1" d="m1119.8 27.9c-12.6-10.4-26.7-20-41.5-27.9h-27.4c23.8 10.4 49.9 29.1 68.9 46z"/>
			<path class="s1" d="m1115.4 10.3c-0.4 1.7-0.7 3.2-0.9 4.9 0 0.6-0.1 1.1-0.1 1.7v0.3q0.4 0.4 0.7 0.4c0.6 0.2 1.2-0.3 1.6-1 0.3-0.3 0.5-0.8 0.8-1.2 0.7-1.1 1.4-2.5 2.1-3.7l0.2-0.3q0 0 0-0.1v-11.3h-1.1q-0.2 0.5-0.5 1.1c-1.2 3.1-2.1 6-2.8 9.2z"/>
			<path class="s1" d="m1065.8 17.9c-7.6-5.2-18-3.4-23.4 3.9-5.3 7.3-3.4 17.4 4.1 22.6 7.6 5.1 18.1 3.3 23.4-4 5.3-7.3 3.5-17.4-4.1-22.5z"/>
			<path class="s1" d="m1099.7 40.7c-7.6-5.1-18.1-3.3-23.4 4-5.4 7.3-3.5 17.4 4.1 22.6 7.6 5.1 18 3.3 23.4-4 5.3-7.3 3.4-17.4-4.1-22.6z"/>
			<path class="s1" d="m1116.4 65.6c-0.8 1.6-1.2 2.9-1.2 4.6-0.1 1.8 0.2 3.2 0.8 4.9 0.9 2.5 2.2 4.5 3.8 6.4v-19.3c-1.4 0.9-2.4 1.9-3.4 3.4z"/>
			<path class="s1" d="m510.9 40.3c-7.2-3.7-16.4-0.5-20.6 7.1-4.2 7.6-1.8 16.7 5.4 20.4 7.2 3.7 16.4 0.5 20.6-7.1 4.2-7.6 1.7-16.7-5.4-20.4zm-7.4 16.4c-1.6 3-5.3 4.3-8.1 2.8-2.8-1.4-3.8-5-2.1-8 1.6-3 5.2-4.3 8.1-2.8 2.8 1.4 3.8 5 2.1 8z"/>
			<path class="s1" d="m462.4 22.8c-3.1 5.6-8 5.7-12 5.2-20.4-2.8-42.2-4.5-62.3-6.9-2-0.3-3.5-0.1-5.2 0.7-1.8 0.9-2.9 1.9-3.8 3.6-3.4 6.8-7.3 14.8-9.5 22.1-0.5 1.8-1.8 6.2-0.5 7.8 4.3 0.9 9.2-9.7 14.5-17.1 2.8-3.7 3.5-3.2 8.3-2.1 19.6 4.3 38.5 6.9 58.6 9.6 11.1 1.4 14.5 3.8 21.8-6.1 1.9-2.6 3.6-5.3 5.3-8 4.4-7.3 8.4-14.6 12.4-22.1 1.4-2.6 3.2-5.9 5-9.5h-18.9c-0.5 0.9-0.9 1.6-1.1 1.9-4.1 7.1-8.2 14-12.6 20.8z"/>
			<path class="s1" d="m422.6 13.1c1.4-3.2 4-7.9 7-13.1h-5.4c-5 10.7-8.1 19.4-1.6 13.1z"/>
			<path class="s1" d="m490.3 17.8c-1.7 2.7-3.1 5.2-3.8 8.3-0.1 0.4-0.2 0.8-0.3 1.3-0.2 1-0.2 1.9-0.1 3 0.2 1.7 0.6 2.9 1.6 4.4 1.2 1.4 2.3 2.3 4.1 2.9 1.7 0.5 3 0.6 4.7 0.4 2.9-0.8 9.9-3.9 9.1-7.6-0.3-0.7-1.8-1-2.5-1.1-6.5-0.8-5.7-5.4-4.2-8.8 2.3-5.1 13-15.5 18.5-19.8q0.5-0.4 1.1-0.8h-9.5c-7.4 4.7-14 10.9-18.7 17.8z"/>
			<path class="s1" d="m38.5 948.6c-0.5-1.9-1.2-3.4-2.4-5-1.4-1.6-6.5-5.3-4.1-1.8 0.9 0.6 1.9 1.9 2.4 2.8 0.9 1.5 1.3 2.8 1.5 4.4 0.1 1.7 0 3-0.5 4.6-0.5 1.6-1.1 2.7-2.2 4-0.9 1-1.7 1.6-2.9 2.3q-0.3 0.2-0.7 0.4c-1.5 0.7-2.6 1-4.2 1.2-1.5 0.1-2.7 0-4.1-0.4-1.5-0.5-2.5-1-3.7-1.9-1.1-0.9-1.9-1.8-2.6-3-0.7-1.2-1-2.2-1.2-3.6-0.1-1.3-0.1-2.3 0.3-3.6 0.3-1.3 0.8-2.3 1.6-3.4 0.8-1.1 1.6-1.8 2.8-2.5 1.1-0.7 2.1-1.1 3.5-1.4 1.3-0.3 2.4-0.4 3.8-0.3 1 0 1.9 0.2 2.9 0.2 0.4 0.1 1.7 0.2 2-0.2 1-1.8-2.6-3.8-3.9-4.4-2-0.8-3.7-1-5.8-0.9-2.3 0.1-3.9 0.6-5.9 1.6-2.1 1.1-3.5 2.3-4.9 4.1-0.3 0.2-1 1.5-1.2 1.8-0.8 1.3-1.2 2.5-1.6 4-0.4 2.2-0.4 3.9-0.1 6.1 0.5 2.2 1.1 3.8 2.3 5.7 1.3 1.9 2.6 3.1 4.6 4.5 1.9 1.2 3.6 1.9 5.9 2.4 2.2 0.3 4 0.3 6.2 0 2.2-0.5 3.8-1.1 5.6-2.3 1.9-1.2 3.1-2.4 4.4-4.2 1.2-1.9 1.9-3.4 2.3-5.6 0.3-1.5 0.3-2.7 0.1-4.3q0-0.6-0.2-1.3z"/>
			<path class="s1" d="m84.9 948.6c-0.5-1.9-1.2-3.4-2.4-5-1.4-1.6-6.5-5.3-4.1-1.8 1 0.6 1.9 1.9 2.4 2.8 0.9 1.5 1.3 2.8 1.5 4.4 0.1 1.7 0 3-0.5 4.6-0.5 1.6-1.1 2.7-2.2 4-0.9 1-1.7 1.6-2.8 2.3q-0.4 0.2-0.8 0.4c-1.4 0.7-2.6 1-4.2 1.2-1.5 0.1-2.6 0-4.1-0.4-1.4-0.5-2.5-1-3.7-1.9-1.1-0.9-1.9-1.8-2.6-3-0.6-1.2-1-2.2-1.2-3.6-0.1-1.3-0.1-2.3 0.3-3.6 0.3-1.3 0.8-2.3 1.6-3.4 0.9-1.1 1.6-1.8 2.8-2.5 1.2-0.7 2.1-1.1 3.5-1.4 1.3-0.3 2.4-0.4 3.8-0.3 1 0 1.9 0.2 2.9 0.2 0.4 0.1 1.7 0.2 2-0.2 1-1.8-2.6-3.8-3.9-4.4-2-0.8-3.6-1-5.8-0.9-2.3 0.1-3.9 0.6-5.9 1.6-2.1 1.1-3.5 2.3-4.9 4.1-0.3 0.2-1 1.5-1.2 1.8-0.8 1.3-1.2 2.5-1.5 4-0.5 2.2-0.5 3.9-0.2 6.1 0.5 2.2 1.1 3.8 2.3 5.7 1.3 1.9 2.6 3.1 4.6 4.5 1.9 1.2 3.6 1.9 5.9 2.4 2.2 0.3 4 0.3 6.2 0 2.2-0.5 3.8-1.1 5.6-2.3 1.9-1.2 3.1-2.4 4.4-4.2 1.2-1.9 1.9-3.4 2.3-5.6 0.3-1.5 0.3-2.7 0.1-4.3q0-0.6-0.2-1.3z"/>
			<path class="s1" d="m38.5 934.3h3.8c0.6 0 68.1-1.5 57.1-5.3q-0.9-0.3-2.5-0.6c-17 1.4-41.5 0.7-58.2 0.1-10.9-0.5-21.6-1.4-32.2-4.1-2.3-0.6-4.4-1.3-6.5-2.3v8c1.5 0.5 3.1 0.9 4.7 1.3 11.3 2.3 22.4 2.7 33.8 2.9z"/>
			<path class="s1" d="m12.5 912.8c16.8-0.4 36.2 1.8 53.3 2.8 9.6 0.6 18.9 0.9 28.6 0.5 4.1-0.3 7.9-0.7 11.9-1.5 3.7-0.9 6.6-1.8 9.7-3.8 6.6-4.7 10.7-9.5 13.6-16.9 1.2-3.7 1.7-6.8 1.5-10.7-0.3-4.2-1.3-7.3-3.3-11-2.3-4-4.7-6.7-8.4-9.7-4.4-3.3-8.3-5.3-13.4-7.3-14.3-5.2-27.5-6.3-42.7-6.4-18.3 0.1-43.1-0.2-63.3 1.3v8.7c22.5 2.4 57 2.9 63.3 3.1 10.5 0.3 21.2 1.1 31.3 3.9 2.1 0.6 4.2 1.2 6.3 2 3.7 1.4 6.6 2.9 9.8 5.2 2.1 1.7 3.6 3.3 5.1 5.6 1 1.9 1.5 3.4 1.7 5.5 0.1 2.1-0.1 3.7-0.7 5.7-1.7 4.7-4.4 7.7-8.4 10.7-1.5 1-3.5 1.6-5.2 2-3.3 0.8-6.4 1.2-9.8 1.5-9.1 0.7-18.1 0.6-27.2 0.4-17.4-0.5-37.4-2.2-54.6-0.7-3.9 0.4-7.8 0.9-11.6 1.7v8.9q0.6-0.2 1.3-0.3c3.8-0.6 7.4-1 11.2-1.2z"/>
			<path fill-rule="evenodd" class="s1" d="m483.1 191.8c-2.4-3.5 2.7 0.2 4.1 1.9 1.2 1.6 1.9 3 2.4 5q0.2 0.6 0.2 1.3c0.2 1.5 0.2 2.8-0.1 4.3-0.4 2.1-1.1 3.7-2.3 5.5-1.3 1.8-2.5 3-4.4 4.3-1.8 1.1-3.4 1.8-5.6 2.2-2.2 0.4-4 0.4-6.2 0-2.3-0.4-4-1.1-5.9-2.4-2-1.3-3.3-2.6-4.6-4.5-1.2-1.9-1.8-3.5-2.3-5.6-0.3-2.2-0.3-4 0.1-6.2 0.4-1.4 0.8-2.6 1.6-4 0.2-0.3 0.9-1.5 1.2-1.7 1.4-1.8 2.8-3 4.9-4.1 2-1 3.6-1.5 5.9-1.7 2.2-0.1 3.8 0.2 5.8 1 1.3 0.6 4.9 2.5 3.9 4.4-0.3 0.3-1.6 0.2-2 0.2-1-0.1-1.9-0.2-2.9-0.3-1.4-0.1-2.5 0-3.8 0.3-1.4 0.3-2.3 0.7-3.5 1.4-1.2 0.8-2 1.5-2.8 2.6-0.8 1.1-1.3 2-1.6 3.3-0.4 1.3-0.4 2.4-0.3 3.7 0.2 1.3 0.6 2.3 1.2 3.5 0.7 1.3 1.5 2.1 2.6 3 1.2 0.9 2.3 1.5 3.7 1.9 1.5 0.4 2.6 0.5 4.1 0.4 1.6-0.1 2.8-0.5 4.2-1.1q0.4-0.2 0.8-0.4c1.1-0.7 1.9-1.4 2.8-2.4 1.1-1.3 1.7-2.4 2.2-4 0.5-1.6 0.6-2.9 0.5-4.5-0.2-1.7-0.6-3-1.5-4.5-0.5-0.8-1.5-2.2-2.4-2.8zm-90.6-90.4c21.5-2.9 53.3-2.4 75.5-2.5 15.2 0.1 28.4 1.1 42.7 6.3 5.1 2 9 4.1 13.4 7.4 3.7 3 6.1 5.6 8.4 9.7 2 3.7 3 6.8 3.3 10.9 0.2 4-0.3 7-1.5 10.8-2.9 7.4-7 12.2-13.6 16.8-3.1 2.1-6 3-9.7 3.8-4 0.9-7.8 1.3-11.9 1.5-9.7 0.5-19 0.1-28.6-0.4-17.1-1.1-36.5-3.3-53.3-2.9-3.8 0.3-7.4 0.6-11.2 1.3-1.1 0.2-2.2 0.4-3.3 0.7-1.2 0.3-2.4 0.8-3.4 1.4 0 0-0.4 0.3-0.4 0.3 0 0 0-0.1 0-0.1 0 0.8 0.2 1.3 0.6 1.9 0.6 0.9 1.3 1.5 2.1 2.2 2.9 1.9 6.2 3 9.6 3.9 10.6 2.8 21.3 3.6 32.2 4.2 16.7 0.5 41.2 1.2 58.2-0.2q1.6 0.4 2.4 0.7c11.1 3.7-56.4 5.2-57 5.2h-3.8c-11.4-0.2-22.6-0.6-33.8-2.9-4.5-1-8.3-2.2-12.2-4.6-1.9-1.2-3.2-2.3-4.5-4-1.3-1.9-1.9-3.5-2.2-5.8-0.1-1.6 0.2-2.8 0.9-4.2 0.6-1.2 1.3-2 2.4-2.9 1.9-1.5 3.8-2.3 6.1-3.1 5.4-1.8 10.8-2.5 16.5-3.1 17.1-1.4 37.1 0.2 54.5 0.7 9.1 0.3 18.1 0.4 27.2-0.3 3.4-0.3 6.5-0.7 9.8-1.5 1.8-0.5 3.8-1 5.2-2 4-3 6.7-6.1 8.4-10.7 0.6-2 0.8-3.6 0.7-5.7-0.2-2.2-0.7-3.7-1.7-5.6-1.4-2.3-2.9-3.8-5.1-5.5-3.2-2.4-6.1-3.8-9.8-5.3-2.1-0.7-4.1-1.4-6.3-2-10.1-2.7-20.8-3.6-31.3-3.9-8.4-0.2-67.1-1-80.4-6.2-1.3-0.6-2.2-1.1-2.5-1.8 0.8-1.5 5.8-2.2 7.4-2.5zm-9.4 30.4c0.8 5.9 2.3 27.7 3.4 31.8q-0.3 0.7-0.6 1.1c-2.5 3.2-5.8-11.8-6.3-13.8-3.9-14.1-8.3-26.5-14.6-39.8-3.4-7.1-6.6-12.9-10.8-19.5-2.6-4-12.8-17.5-13.2-24q-0.1-1.1 0.3-1.9c0.9-0.9 2.2-0.9 3.4-0.7 15.4 3.8 27.1 28.5 32 41.3 3 8.7 4.9 16.5 6.4 25.5zm53.6 60c-2.4-3.5 2.7 0.2 4.1 1.9 1.2 1.6 1.9 3 2.4 5q0.2 0.6 0.2 1.3c0.2 1.5 0.2 2.8-0.1 4.3-0.4 2.1-1.1 3.7-2.3 5.5-1.3 1.8-2.5 3-4.4 4.3-1.9 1.1-3.4 1.8-5.6 2.2-2.2 0.4-4 0.4-6.2 0-2.3-0.5-4-1.1-5.9-2.4-2-1.3-3.3-2.6-4.6-4.5-1.2-1.9-1.8-3.5-2.3-5.7-0.3-2.2-0.3-3.9 0.1-6.1 0.4-1.4 0.8-2.6 1.6-4 0.2-0.3 0.9-1.5 1.2-1.7 1.4-1.8 2.8-3 4.9-4.1 2-1 3.6-1.5 5.9-1.7 2.1-0.1 3.8 0.2 5.8 1 1.3 0.6 4.9 2.5 3.9 4.3-0.3 0.4-1.6 0.3-2 0.3-1-0.1-1.9-0.2-2.9-0.3-1.4-0.1-2.5 0-3.8 0.3-1.4 0.3-2.4 0.7-3.5 1.4-1.2 0.8-2 1.5-2.8 2.6-0.8 1.1-1.3 2-1.6 3.3-0.4 1.3-0.4 2.4-0.3 3.7 0.2 1.3 0.5 2.3 1.2 3.5 0.7 1.3 1.4 2.1 2.6 3 1.2 0.9 2.2 1.5 3.7 1.9 1.4 0.4 2.6 0.5 4.1 0.4 1.6-0.1 2.7-0.5 4.1-1.1q0.5-0.2 0.8-0.4c1.2-0.7 2-1.4 2.9-2.4 1.1-1.3 1.7-2.4 2.2-4 0.5-1.6 0.6-2.9 0.5-4.5-0.3-1.7-0.7-3-1.5-4.5-0.5-0.9-1.5-2.2-2.4-2.8z"/>
			<path fill-rule="evenodd" class="s1" d="m557.3 928.8c-16.1-14-36.2-37.8-50.6-54-9.7-11.3-17.4-21.7-22.5-35.6-1.7-5.1-2.6-9.3-2.8-14.6 0-4.7 0.5-8.2 2.2-12.5 1.7-3.9 3.5-6.5 6.6-9.5 3-2.7 5.7-4.3 9.5-5.7 7.7-2.7 14.2-2.8 22.1-0.9 3.7 1 6.3 2.5 9.3 4.7 3.3 2.4 6 4.9 8.9 7.8 6.5 6.8 12.3 14 18.1 21.4 10.1 13.2 20.8 29 32 41.1 2.7 2.7 5.3 5.1 8.2 7.5 0.9 0.7 1.8 1.3 2.7 2 1 0.6 2.2 1.2 3.3 1.6 0.1 0 0.5 0 0.5 0 0 0.1 0 0.1 0 0.1 0.5-0.5 0.8-0.9 1.1-1.7 0.3-1 0.3-1.9 0.3-2.9-0.3-3.4-1.6-6.5-3-9.6-4.7-9.6-10.9-18-17.5-26.4-10.3-12.7-25.5-31.2-37.6-42.9q-0.7-1.3-1.1-2.2c-4.1-10.5 40.6 38.3 40.9 38.7l2.5 2.8c7.2 8.6 14 17 19.5 26.8 2 4 3.6 7.5 4.2 12 0.3 2.1 0.2 3.8-0.3 5.9-0.7 2.2-1.6 3.7-3.2 5.3-1.2 1.1-2.3 1.7-3.9 2.1-1.4 0.3-2.4 0.3-3.8 0.1-2.5-0.5-4.3-1.3-6.5-2.5-4.8-2.9-8.9-6.4-13-10.2-12.2-11.7-23.7-27.5-34.5-40.7-5.7-6.9-11.4-13.5-17.9-19.8-2.4-2.3-4.7-4.4-7.5-6.3-1.4-1-3.2-2.1-4.9-2.5-5-1.1-9.1-1-13.9 0.7-2 0.9-3.4 1.7-5 3.2-1.5 1.5-2.4 2.8-3.2 4.8-1 2.5-1.2 4.6-1.2 7.3 0.2 3.9 0.9 7 2.2 10.6 0.7 2.1 1.5 4 2.5 6 4.3 9.2 10.5 17.7 17.1 25.6 5.1 6.4 42.3 50.1 46.7 63.3 0.5 1.3 0.6 2.3 0.3 3-1.8 0.4-5.5-2.9-6.8-3.9zm13.3-125.1c-1.2 4.1-1.6-2.1-1.2-4.2 0.5-1.9 1.2-3.3 2.5-4.9q0.4-0.6 0.9-1.1c1.1-1.1 2.1-1.9 3.5-2.7 1.9-1 3.6-1.5 5.8-1.8 2.3-0.2 4-0.1 6.2 0.5 2.2 0.6 3.7 1.4 5.4 2.7 1.8 1.4 2.9 2.7 4 4.5 1.1 2 1.7 3.7 2 6 0.2 2.3 0 4-0.7 6.2-0.7 2.1-1.6 3.6-3 5.4-1.5 1.7-2.9 2.8-4.9 3.8-1.4 0.7-2.7 1.2-4.2 1.5-0.4 0-1.8 0.3-2.1 0.2-2.4 0.1-4.2-0.1-6.5-1-2-0.8-3.5-1.7-5.1-3.3-1.4-1.5-2.3-2.9-3-4.9-0.4-1.3-1.1-5.2 1-5.7 0.4 0 1.2 1.1 1.5 1.4 0.5 0.7 1 1.5 1.6 2.3 0.8 1 1.6 1.8 2.7 2.6 1.1 0.8 2.1 1.3 3.4 1.7 1.3 0.4 2.4 0.5 3.8 0.4 1.4-0.1 2.4-0.4 3.7-1 1.3-0.6 2.1-1.2 3.1-2.2 0.9-1 1.5-1.8 2-3.1 0.5-1.3 0.7-2.4 0.7-3.9 0-1.4-0.3-2.5-0.9-3.9-0.6-1.3-1.3-2.3-2.3-3.3-1.1-1.1-2.1-1.7-3.6-2.3q-0.4-0.2-0.8-0.3c-1.3-0.4-2.3-0.6-3.7-0.6-1.7 0-3 0.3-4.6 0.9-1.6 0.7-2.7 1.4-3.9 2.6-1.2 1.3-1.9 2.4-2.6 3.9-0.3 1-0.8 2.6-0.7 3.6zm16.9 112.5c4.1-4.4 20.5-19.6 23-23q0.7-0.3 1.2-0.3c4.2-0.2-5.6 11.8-6.8 13.5-8.7 12-15.7 23.2-22.2 36.5-3.4 7-6 13.2-8.5 20.5-1.5 4.5-5.6 20.7-10.5 25.2q-0.8 0.7-1.7 1c-1.3-0.1-2.1-1-2.8-2-6.9-13.9 5.2-38.4 12.2-50.3 4.9-7.8 9.9-14.2 16.1-21.1zm13-78.2q0 0 0 0 0 0 0 0zm0 0c-1.2 4-1.6-2.1-1.2-4.2 0.5-2 1.2-3.4 2.5-5q0.4-0.5 0.8-1c1.2-1.2 2.2-1.9 3.6-2.7 1.9-1.1 3.6-1.6 5.8-1.9 2.3-0.2 4-0.1 6.2 0.5 2.2 0.6 3.7 1.4 5.4 2.7 1.8 1.4 2.9 2.7 4 4.6 1.1 2 1.7 3.6 2 5.9 0.2 2.3 0 4.1-0.7 6.2-0.7 2.2-1.6 3.7-3 5.4-1.5 1.7-2.9 2.8-4.9 3.8-1.4 0.7-2.7 1.2-4.2 1.5-0.4 0.1-1.8 0.3-2.2 0.3-2.3 0.1-4.1-0.2-6.4-1-2.1-0.9-3.5-1.8-5.1-3.3-1.5-1.6-2.3-2.9-3-4.9-0.4-1.4-1.1-5.2 1-5.7 0.4-0.1 1.2 1 1.5 1.3 0.5 0.8 1 1.5 1.6 2.3 0.8 1.1 1.6 1.8 2.7 2.7 1.1 0.7 2.1 1.2 3.4 1.6 1.3 0.4 2.4 0.5 3.8 0.4 1.4-0.1 2.4-0.4 3.7-0.9 1.3-0.6 2.1-1.3 3.1-2.2 0.9-1 1.5-1.9 2-3.2 0.5-1.3 0.7-2.4 0.7-3.8 0-1.5-0.3-2.6-0.9-4-0.6-1.3-1.3-2.2-2.3-3.3-1.1-1-2.2-1.7-3.6-2.3q-0.4-0.2-0.8-0.3c-1.3-0.4-2.3-0.6-3.7-0.6-1.7 0.1-3 0.3-4.6 0.9-1.6 0.7-2.7 1.5-3.9 2.6-1.2 1.3-1.9 2.4-2.6 4-0.3 1-0.8 2.5-0.7 3.6z"/>
			<path class="s1" d="m7.6 520.9c3.3-4.8 2.3-11.1-2.3-14.2-1.6-1-3.4-1.5-5.3-1.5v20.3c2.9-0.4 5.7-2 7.6-4.6z"/>
			<path class="s1" d="m6.8 449.6c-2.1-3.4-4.3-6.5-6.8-9.4v16.5c2.1 3.8 2.8 7 2.4 12-0.3 2.2-0.7 4.1-1.3 6.2q-0.5 1.6-1.1 3.1v14c4.5-7.2 8.4-14.2 10.3-22.5 1.3-8 0.2-13.2-3.5-20z"/>
			<path class="s1" d="m23.4 481.2c-4.6-3-11.1-1.6-14.5 3.2-3.3 4.8-2.3 11.1 2.3 14.1 4.6 3 11 1.6 14.4-3.1 3.4-4.8 2.4-11.1-2.2-14.2z"/>
			<path class="s1" d="m308.2 443c9.9 6.8 27.3 15.4 38.1 20.2 6 2.6 11.5 4.8 17.9 6.2 2.3 0.5 4.3 0.7 6.6 0.8 6.1 0.1 9.6-1.2 14.3-4.5 5.6-4.3 10.3-9.9 14.9-15.1 12.4-13.7 25-24.5 40.9-34.7 9.6-5.9 25.8-15.1 38.2-14.4 1.2 0.2 3.4 0.5 4 1.7-0.4 1.8-31.4 19.1-35.3 21.7q-5.4 3.7-10.6 7.7c-10.6 7.9-19.5 15.6-28.9 24.9-5.5 5.7-10.6 11.1-17.4 15.5-6.7 4.1-12 5.5-20.3 4.9-9.9-1.3-18.1-5.2-26.9-9.6-4.3-2.4-8.5-4.8-12.7-7.3-1-0.6-39.4-24.8-22.8-18zm43.6-9.1c-5.8-3.5-11.7-8.1-22.6-18.3-3.1-3.3-5.6-6.4-8-10.1-4.1-6.3-6.5-11.5-8.4-18.6-3.4-14.1-2.2-25.1 1.5-38.7 0.9-3 4.5-4.3 7.6-2.6 20.5 10.4 96.9 50.6 111.4 63.3 0.8 0.8 2 2.1 1.6 3.2-6 5.3-63.8-27.7-70.3-31.2-12.9-7.1-25.9-14.4-38.7-21.7-1.9-1.1-3.1-1.4-4 2-0.7 2.8-1.2 5.6-1.4 8.5 30.9 16.8 81.1 44.7 87.3 50 0.6 0.6 2.1 1.9 1.9 2.8q-0.5 0.3-1.6 0.2c-10.7-1-62.3-30.3-67.6-33.2q-10-5.5-20-11.1 0.3 3.6 0.9 7.4 0.7 2.9 1.5 5.5c29.1 16 62.9 35.1 67.9 39.4 0.6 0.6 2.1 1.8 1.9 2.8q-0.5 0.3-1.6 0.2c-9.2-0.9-48.7-22.7-62.9-30.6 1.7 2.8 3.7 5.6 6.1 8.7 6.7 7.8 13.2 13.3 21.6 19.4 1.6 1.2 10.3 6.6 16.9 11.2 6.2 4.2 8.1 7.9 3 6.4-0.4-0.1-21.2-13.1-24-14.9zm-24.5 28.4c5.2 2.9 7.1 9 4.3 13.6-2.7 4.7-9.2 6.1-14.4 3.2-5.2-2.8-7.1-9-4.3-13.6 2.8-4.7 9.2-6.1 14.4-3.2zm27.7 15.4c5.2 2.9 7.1 9 4.4 13.6-2.8 4.7-9.3 6.1-14.5 3.3-5.1-2.9-7.1-9-4.3-13.7 2.8-4.7 9.2-6.1 14.4-3.2z"/>
			<path class="s1" d="m894 792.3c12.1-1.2 31-5.8 42.4-9.1 6.4-1.8 12-3.7 17.8-6.7 2-1.1 3.6-2.2 5.4-3.6 4.7-3.8 6.4-7 7.7-12.5 1.2-6.8 1-14 0.9-20.8-0.1-18.2 2-34.4 7-52.2 3.2-10.5 9-27.7 18.8-35 1-0.7 2.9-1.9 4.2-1.3 1 1.6-10.5 34.3-11.7 38.7q-1.5 6.3-2.7 12.6c-2.6 12.7-4 24.1-4.6 37.1-0.3 7.7-0.5 15.1-2.5 22.7-2.3 7.4-5.3 11.8-12 16.6-8.3 5.3-17.1 7.7-26.8 9.9-4.8 1-9.6 1.8-14.4 2.6-1.3 0.2-46.7 6.5-29.5 1zm26.5-34.5c-6.8 0.9-14.4 1.3-29.5 0.5-4.6-0.5-8.5-1.2-12.9-2.4-7.4-2.2-12.7-4.6-19-8.7-12.2-8.4-18.9-17.5-25.4-30-1.4-2.9 0.5-6.1 3.9-6.9 22.6-5.1 107.5-23.6 127-23.2 1.2 0.1 2.9 0.3 3.5 1.4-0.9 7.8-67 19.7-74.2 21.2-14.6 2.9-29.3 5.7-44 8.4-2.2 0.4-3.3 0.9-1.6 4 1.4 2.6 3 5 4.7 7.3 34.8-7.1 91.6-18.1 99.9-18 0.8 0.1 2.8 0.1 3.3 0.9q-0.1 0.5-1 1.1c-8.8 6.1-67.6 17-73.6 18.1q-11.3 2.3-22.6 4.4 2.6 2.5 5.8 5 2.4 1.7 4.8 3.2c32.8-6.5 71.3-13.7 78-13.6 0.9 0 2.8 0 3.3 0.8q-0.1 0.6-1 1.2c-7.5 5.2-52.1 14-68.3 17.1 3.3 1 6.7 1.9 10.6 2.6 10.4 1.6 19.1 1.6 29.6 0.9 2-0.1 12.2-1.6 20.3-2.4 7.6-0.8 11.5 0.8 6.6 2.9-0.4 0.2-24.9 3.7-28.2 4.1zm1 36.9c5.9-1.1 11.5 2.2 12.6 7.5 1.1 5.3-2.8 10.5-8.6 11.6-5.9 1.1-11.5-2.2-12.6-7.5-1.1-5.3 2.7-10.5 8.6-11.6zm31.4-6.1c5.8-1.1 11.5 2.3 12.6 7.5 1.1 5.3-2.8 10.5-8.7 11.6-5.8 1.2-11.5-2.2-12.6-7.5-1.1-5.2 2.8-10.4 8.7-11.6z"/>
			<path class="s1" d="m282.4 806c10.2 6.3 28 14 39.1 18.3 6.1 2.4 11.7 4.3 18.1 5.4 2.4 0.3 4.3 0.5 6.7 0.5 6.1-0.3 9.5-1.7 14-5.2 5.4-4.6 9.8-10.4 14.2-15.8 11.7-14.3 23.7-25.7 39-36.6 9.4-6.3 25-16.3 37.4-16.2 1.2 0.1 3.5 0.3 4.1 1.5-0.2 1.8-30.4 20.6-34.1 23.3q-5.2 4.1-10.2 8.2c-10.3 8.4-18.7 16.5-27.6 26.3-5.2 5.9-10.1 11.5-16.6 16.3-6.5 4.4-11.7 6.1-20.1 5.8-9.9-0.8-18.3-4.3-27.3-8.3-4.4-2.1-8.7-4.3-13-6.6-1.1-0.6-40.7-23-23.7-16.9zm43-11.2c-6-3.3-12.1-7.5-23.5-17.2-3.2-3.2-5.8-6.1-8.5-9.7-4.4-6.1-7-11.2-9.3-18.2-4.1-13.9-3.5-25-0.5-38.7 0.8-3.1 4.3-4.5 7.5-3 21 9.5 99.4 45.9 114.4 57.9 0.9 0.8 2.1 2 1.9 3.2-5.8 5.6-65.3-24.7-71.9-27.8-13.2-6.5-26.6-13.2-39.8-19.9-1.9-1-3.1-1.2-3.8 2.2-0.6 2.9-0.9 5.7-1 8.5 31.7 15.4 83.3 40.8 89.7 45.9 0.7 0.5 2.2 1.7 2.1 2.6q-0.5 0.4-1.6 0.3c-10.7-0.4-63.8-27.3-69.3-29.9q-10.2-5-20.5-10.1 0.5 3.5 1.4 7.3 0.7 2.8 1.7 5.4c29.8 14.6 64.6 32.1 69.8 36.2 0.7 0.5 2.2 1.7 2.1 2.6q-0.5 0.4-1.6 0.3c-9.2-0.4-49.8-20.3-64.5-27.5 1.9 2.7 4.1 5.4 6.7 8.3 7 7.5 13.8 12.7 22.5 18.5 1.7 1.1 10.6 6 17.5 10.3 6.4 3.9 8.4 7.5 3.3 6.3-0.4-0.1-21.9-12.1-24.8-13.7zm-23 29.4c5.3 2.6 7.6 8.7 5 13.4-2.5 4.8-8.9 6.6-14.2 3.9-5.3-2.6-7.6-8.6-5-13.4 2.5-4.8 8.9-6.5 14.2-3.9zm28.5 14.1c5.3 2.6 7.6 8.6 5 13.4-2.5 4.8-8.9 6.5-14.2 3.9-5.3-2.6-7.6-8.6-5.1-13.4 2.6-4.8 9-6.5 14.3-3.9z"/>
			<path class="s1" d="m794.3 343.8c12.1 1 31.5-0.2 43.4-1.4 6.6-0.7 12.4-1.5 18.7-3.5 2.2-0.7 4-1.5 6.1-2.6 5.2-2.9 7.5-5.8 9.8-10.9 2.6-6.4 3.7-13.6 4.9-20.3 3.4-17.9 8.5-33.4 16.7-50 5.2-9.8 14.2-25.7 25.2-31.2 1.1-0.4 3.2-1.3 4.4-0.5 0.6 1.7-16.9 31.9-18.9 36q-2.6 5.9-5 11.9c-5 12-8.5 23-11.6 35.6-1.7 7.6-3.3 14.8-6.8 21.9-3.6 6.9-7.4 10.7-14.9 14.3-9.1 3.7-18.3 4.4-28.2 4.9-4.9 0.2-9.7 0.1-14.7 0-1.2 0-47.1-1.8-29.1-4.2zm32.6-29.2c-6.9-0.3-14.4-1.3-29.2-4.7-4.4-1.3-8.1-2.7-12.2-4.7-6.8-3.4-11.6-6.7-17-11.8-10.4-10.5-15.2-20.6-19.3-34-0.8-3.1 1.7-6 5.2-6.1 23.1-1.1 110.1-4.3 129.2-0.5 1.2 0.4 2.9 0.9 3.2 2-2.4 7.5-69.6 7.7-77 7.8-14.9 0.3-29.9 0.5-44.8 0.5-2.2 0-3.4 0.3-2.3 3.7 0.8 2.8 1.9 5.4 3.2 7.9 35.5-0.7 93.5-1.5 101.6 0 0.8 0.2 2.8 0.6 3.1 1.4q-0.2 0.5-1.2 1c-9.8 4.5-69.7 4.7-75.8 4.8q-11.5 0.2-23 0.3 2.1 3 4.7 5.9 2.1 2.2 4.1 4c33.5-0.5 72.7-0.8 79.3 0.4 0.8 0.2 2.8 0.6 3.1 1.4q-0.2 0.6-1.2 1c-8.4 3.8-53.9 4.6-70.4 4.8 3 1.6 6.3 3 10 4.4 9.8 3.4 18.4 4.9 28.8 6.1 2 0.2 12.4 0.6 20.5 1.2 7.6 0.6 11.1 2.8 5.9 4.1-0.4 0.1-25.2-0.8-28.5-1zm-6 36.5c6-0.1 10.9 4.2 10.9 9.6 0.1 5.3-4.7 9.7-10.7 9.8-5.9 0.1-10.8-4.2-10.9-9.6-0.1-5.3 4.7-9.8 10.7-9.8zm32-0.5c6 0 10.9 4.3 10.9 9.6 0.1 5.4-4.7 9.8-10.7 9.9-5.9 0.1-10.8-4.2-10.9-9.6-0.1-5.4 4.7-9.8 10.7-9.8z"/>
			<path class="s1" d="m1037.6 671.7c8.5-1 14.3-9.5 13.1-18.9-1.2-9.4-9-16.3-17.5-15.3-8.4 1-14.3 9.5-13.1 18.9 1.3 9.5 9.1 16.3 17.5 15.3zm-1.3-28c4-0.5 7.6 2.7 8.2 7.1 0.5 4.4-2.2 8.3-6.1 8.8-3.9 0.5-7.6-2.7-8.1-7.1-0.6-4.4 2.1-8.3 6-8.8z"/>
			<path class="s1" d="m1051.9 631.7c3.3 7.7 6.8 37.2 7.6 45.1 2 22.1 2.9 42.3-0.4 64.3-1.4 8.9-5.8 13.5-11.8 7.7-0.5-0.6-1.9-2.3-2.7-2.4-2.8-0.4-3.7 2.5-4 4.8-0.2 2.3 0.2 4 0.9 6.1 0.9 2.2 1.9 3.8 3.4 5.5 3.7 3.7 8.2 5.4 13.3 4.4 6.3-1.4 10.2-6.3 12.8-12.1 1.7-3.8 2.6-7.5 3.2-11.6 4.1-31.6-3.2-64.4-12.1-94.6-0.4-1.5-9-27.6-10.2-17.2z"/>
			<path class="s1" d="m1053.5 714.5c-1.2-9.5-9-16.3-17.5-15.3-8.4 1-14.3 9.5-13.1 18.9 1.2 9.5 9.1 16.3 17.5 15.3 8.4-1 14.3-9.5 13.1-18.9zm-12.3 6.8c-3.9 0.5-7.6-2.7-8.2-7.1-0.5-4.4 2.2-8.4 6.1-8.8 4-0.5 7.6 2.7 8.2 7.1 0.5 4.4-2.2 8.3-6.1 8.8z"/>
			<path class="s1" d="m1077 634.9c-1-0.2-1.8-0.1-2.7 0.1-0.9 0.4-1.4 0.7-2 1.4-0.6 0.8-0.8 1.4-1 2.4-0.1 0.9 0 1.7 0.4 2.8 9.4 31.4 16.7 61.4 12.7 90.7-0.3 2.7 0.6 5.5 2.7 8 2.2 2.5 4.8 4 7.7 4.4 9.4 1.2 17.1 2.5 25 4.4v-81.7q-0.1-0.5-0.3-1.1c-0.6-1.7-5.2-12.8-7.5-9.3q-0.3 0.4-0.5 1c2.1 3.2 2.6 21.2 2.6 24.7 0 6.7-1.4 33.1-0.4 48.1q-3.9-0.8-7.8-1.4c-2.4-0.3-3.3-2.3-3.4-7.2-0.5-23-6.6-46.2-14.3-70.3-0.5-1.5 0.1-2.6 3.5-2.1 8.3 1.2 18.2 1.9 28.1 1.7v-11.4q-0.7 0-1.4 0c-13.9-0.8-27.2-2.7-41.4-5.2z"/>
			<path class="s1" d="m1022.6 252.9c1.1-1.7 2.2-2.7 3.8-3.8 1.6-1 3-1.6 4.9-2 1.9-0.4 3.4-0.3 5.4 0 2 0.4 3.4 1 5.1 2 1.7 1.1 2.8 2.1 4.1 3.7 1.2 1.6 2 3 2.8 4.8 0.6 1.3 1 2.6 1.5 3.9 0.2 0.6 0.9 2.4 1.6 2.5 3 0.1 3.3-5.8 3.2-7.8-0.3-3.1-1-5.5-2.5-8.2-1.7-2.8-3.4-4.7-5.9-6.7-2.8-2-5.2-3-8.5-3.8-0.4-0.2-2.5-0.4-3.1-0.4-2.1-0.2-4 0-6.1 0.5-3.2 0.8-5.4 1.8-8 3.7-2.6 1.9-4.2 3.8-5.9 6.6-1.6 2.9-2.5 5.3-2.9 8.7-0.4 3.3-0.2 6 0.7 9.3 0.9 3.1 2 5.3 3.9 8 2 2.5 3.8 4.2 6.5 5.9 2.8 1.7 5.2 2.5 8.4 3.1 3.1 0.4 5.6 0.3 8.6-0.5 2.2-0.6 3.8-1.4 5.7-2.6q0.8-0.5 1.5-1.1c2.2-1.9 3.7-3.7 5-6.3 1.2-2.8 2.8-11.8-0.2-6.5-0.2 1.6-1.4 3.7-2.2 4.9-1.4 2.1-2.8 3.4-4.8 4.7-2 1.3-3.8 1.9-6.2 2.3-2.4 0.3-4.2 0.2-6.6-0.4-1.9-0.5-3.2-1.1-4.8-2.2q-0.6-0.4-1.1-0.8c-1.8-1.4-2.9-2.7-4.1-4.6-1.1-1.9-1.7-3.5-2.1-5.7-0.4-2.1-0.3-3.8 0.1-6 0.4-2 1-3.5 2.2-5.3z"/>
			<path class="s1" d="m1069.3 271.7c-4.2-11.3-7.9-22.8-11.5-34.3q-4.9-15.8-9.4-31.7c-0.4-1.2-8.7-34.4-10.1-25.9 4.8 14.4 10.3 43.1 14.4 59q2.2 8.3 4.5 16.7c1.7 6.2 3.6 12.3 5.5 18.5 1.1 3.9 2.7 7.7 4.3 11.4 1.3 2.9 3.4 6.7 7.1 5.7 15-3.8 30.4-7.8 45.7-9.5v-9c-14 1.7-27.8 5.2-40.8 8.8-5.1 1.4-5.7 0.7-9.7-9.7z"/>
			<path class="s1" d="m1060.7 222.4q0.2 0.2 0.7 0.3c3.8-1.9 14.5-2.9 18.8-3.7 11-2.1 27.1-4.8 39.6-9v-11.7c-17 5.1-35.5 12.3-51.6 18.8-0.5 0.2-9.9 3.6-7.5 5.3z"/>
			<path class="s1" d="m1072.6 253.3q0.2 0.1 0.6 0.2c4.7-2.1 13.6-3.1 18.7-4.2 8.5-2 18.4-3.9 27.9-6.4l0.1-7.6c-13.3 5.1-31 10.2-39.6 13.5-0.4 0.1-10.1 3.4-7.7 4.5z"/>
			<path class="s1" d="m1111.4 136.1c-0.5-0.8-1-1.4-1.6-1.9-0.6-0.5-1-0.7-1.6-0.9-0.3-0.1-1.3 0-1.6 0.2-15.3 8.4-30.5 17-45.7 25.8-0.6 0.3-21.4 11.9-15.9 12.5q0.5 0.1 1.4 0c9.5-6.1 27.7-12.1 38-16.4 7.9-3.1 15.7-6.4 23.5-9.8 2.1 6.9 3.9 12.8 6.6 21.7-19 5.7-36.5 11.3-55.2 18.3-0.4 0.1-10.1 3.4-7.7 4.6q0.2 0.1 0.6 0.2c4.8-2 13.7-2.9 18.9-3.9 13.8-3 32.1-6.1 45.8-11.4 1.1 3.5 2 6.5 2.9 9.4v-24q-3.6-11-7.3-22c-0.3-1-0.6-1.7-1.1-2.5z"/>
			<path class="s1" d="m1018.3 222.5c2.3-0.2 4-0.6 6.1-1.5q0.9-0.3 1.7-0.8c2.5-1.4 4.2-2.9 6-5.2 1.7-2.6 4.7-11.1 0.9-6.4-0.5 1.5-2 3.3-3 4.4-1.7 1.8-3.3 2.8-5.6 3.7-2.2 0.9-4 1.2-6.5 1.2-2.4-0.2-4.2-0.6-6.5-1.6-1.7-0.9-3-1.7-4.4-3q-0.5-0.5-0.9-1c-1.5-1.7-2.4-3.2-3.3-5.3-0.7-2-1.1-3.7-1.1-5.9 0-2.2 0.3-3.8 1.1-5.8 0.8-2 1.7-3.3 3.1-4.8 1.4-1.4 2.7-2.2 4.4-3 1.8-0.7 3.3-1 5.2-1.1 2 0 3.5 0.3 5.4 1 1.8 0.8 3.2 1.6 4.7 2.9 1.4 1.3 2.4 2.6 3.4 4.3 0.9 1.8 1.5 3.3 2 5.2 0.3 1.4 0.5 2.7 0.8 4.1 0.1 0.6 0.5 2.5 1.1 2.7 3 0.6 4.2-5 4.5-7.1 0.3-3 0-5.5-1.1-8.4-1.1-3.1-2.5-5.2-4.7-7.6-2.4-2.5-4.6-3.9-7.7-5.3-0.4-0.2-2.4-0.8-3-0.9-2.1-0.5-4-0.7-6.2-0.6-3.2 0.2-5.6 0.8-8.5 2.2-2.9 1.4-4.8 2.9-7 5.4-2.1 2.5-3.3 4.8-4.4 8-0.9 3.2-1.2 5.8-0.9 9.2 0.4 3.2 1.1 5.6 2.6 8.5 1.5 2.9 3 4.8 5.4 7 2.5 2.1 4.7 3.4 7.8 4.5 3 0.9 5.5 1.2 8.6 1z"/>
			<path class="s1" d="m1091.9 856.3c-5-12.9-16.6-37.5-32.1-41.4-1.2-0.1-2.4-0.1-3.4 0.8q-0.3 0.8-0.2 1.9c0.3 6.4 10.6 19.9 13.1 24 4.2 6.5 7.5 12.3 10.9 19.4 6.3 13.3 10.6 25.7 14.6 39.9 0.5 2 3.7 16.9 6.3 13.7q0.3-0.4 0.6-1.1c-1.1-4-2.6-25.9-3.5-31.8-1.4-9-3.3-16.8-6.3-25.4z"/>
			<path class="s1" d="m1109 909.9c-1.1 0.9-1.8 1.7-2.5 2.9-0.7 1.4-0.9 2.6-0.8 4.1 0.2 2.3 0.8 3.9 2.2 5.9 1.3 1.7 2.6 2.8 4.4 4 2.5 1.5 5 2.5 7.5 3.3v-8q-1.5-0.7-3-1.7c-0.9-0.6-1.6-1.2-2.1-2.1-0.5-0.7-0.6-1.2-0.7-1.9 0.1 0 0.1 0.1 0.1 0.1 0 0 0.3-0.3 0.4-0.3 1-0.7 2.2-1.1 3.4-1.4q1-0.3 1.9-0.5v-8.9q-2.3 0.6-4.7 1.3c-2.4 0.8-4.2 1.6-6.1 3.2z"/>
			<path class="s1" d="m1100.2 853.9c0.3 0.6 1.2 1.2 2.5 1.7 3.4 1.3 9.6 2.4 17.1 3.2v-8.7c-4.3 0.4-8.4 0.8-12.1 1.3-1.6 0.2-6.6 0.9-7.5 2.5z"/>
			<path class="s1" d="m1089.4 526.8c-8.3 15.5 19.6-19.6 20.3-20.6 2.9-3.8 5.7-7.6 8.5-11.6q0.8-1.3 1.6-2.6v-14c-1.8 4.8-4 9.1-6.7 13.7-5.8 10.1-15.9 26.1-23.7 35.1z"/>
			<path class="s1" d="m1093.6 464.6c-5.2 6-11.5 14-12.8 15.5-7 7.6-13.2 13.5-21.7 19.3-3.3 2.1-6.4 3.8-9.5 5.3 9.3-13.1 34.8-49.5 36.4-58.3q0.2-1.1-0.1-1.6c-1-0.2-2.4 1.1-3 1.7-4.9 4.5-27.1 35.6-45.9 62.4q-2.7 0.5-5.8 0.9-4 0.4-7.7 0.4 6.6-9.2 13-18.4c3.4-4.9 37.6-52.3 39.4-62.6q0.2-1-0.1-1.5c-1-0.3-2.4 1.1-3 1.7-6 5.5-38.6 51.7-58.3 80.1-2.9-0.4-5.8-1.1-8.6-2-3.5-1.1-3.1-2.2-1.8-3.9 8.5-11.8 17-23.8 25.3-35.7 4.1-5.9 42.6-59.1 37.6-65.2-1.2-0.4-2.6 0.6-3.5 1.3-14.2 12.9-61.4 83.5-73.8 102.4-1.9 2.8-0.9 6.4 2.1 7.5 13.8 4.5 25.1 6.5 40 4.3 7.4-1.3 13-3.2 19.8-6.6 4-2.1 7.4-4.3 11-7 11.4-9.7 16.6-15 20.7-20.3 2-2.6 17-21.6 17.2-22 1.9-4.8-2-3.3-6.9 2.3z"/>
			<path class="s1" d="m1110.8 509.9c-3.4 4.8-2.4 11.1 2.2 14.1 2 1.4 4.5 1.8 6.8 1.5v-20.3c-3.4-0.1-6.9 1.6-9 4.7z"/>
			<path class="s1" d="m1088.3 402q-3.7-5.4-7.2-10.8c-2.4-3.9-17.9-35.1-19.8-35.6-1.3 0.5-1.7 2.6-2 3.8-1.7 11.9 6.7 28.1 12 37.7 9.3 16.1 19.6 29 32.9 42 5 4.8 10.4 9.8 14.4 15.5q0.7 1.1 1.2 2.1v-16.5c-2.5-2.9-5.1-5.7-7.9-8.6-8.9-9.7-16.2-18.8-23.6-29.6z"/>
			<path fill-rule="evenodd" class="s1" d="m258.3 964.4c3.2-7.1 11.8-10.3 19.1-7.2 7.4 3.2 10.7 11.4 7.5 18.5-3.3 7.1-11.9 10.3-19.2 7.2-7.3-3.2-10.7-11.4-7.4-18.5zm-72.2-89.6c0.4 0.1 0.6 0.2 1 0.4 0.1 0.1 0.3 0.1 0.5 0.2q0.2 0.2 0.5 0.4 0.6 0.5 1.3 1.1c1.4 1.1 2.9 2.4 4.2 3.6 4.3 3.9 8.5 7.8 12.6 11.8 4.5 4.6 8.7 9 12.6 14.1 1.6 2.2 3 4.2 4.3 6.6 1 2.1 1.7 4 1.7 6.3-0.5 4.1-2.1 8.3-3.6 12.1-10.7 24.7-25.5 50.1-35 73.7q-0.9 1.4-1.5 2.1c-6.3 8.3 14-36.8 14.1-37 4.6-10.3 18.4-40.4 18.9-51.1-0.1-0.9-0.7-2-1.1-2.8-1.1-2-2.4-3.7-3.8-5.4-3-3.6-5-5.7-8.3-9-7.2 15.7-13.1 30.1-19.6 45.9-5.4 13.1-11.5 26.6-16.3 34.3-0.2 0.4-0.6 0.9-1 1.2-0.6 0.6-1.1 0.9-1.9 1-0.5 0-0.7-0.1-0.9-0.4-0.5-0.6-0.2-1.9-0.2-2.9 0.8-7.1 4-15.3 7-22.2 3.4-7.7 29.9-58.8 27.5-62-4.1-3.8-7-6.3-11.3-9.9q-0.4-0.3-0.9-0.7c-3.6 8.6-7.3 17.2-11.1 25.7-1.7 3.9-25.6 57.4-33.4 63.5q-0.9 0.7-1.5 0.4c-0.8-0.8-0.1-3.5 0.1-4.5 6.6-24 29-70 40-94.1 0.4-0.8 0.8-1.3 1.6-1.8 0.6-0.4 1.1-0.6 1.8-0.7 0.6-0.1 1.1-0.1 1.7 0.1zm22.5 128.4c6.5-8.9 25.1-50.7 31.9-63.8 2-3.7 4.1-6.6 7.5-9.3 1.4-1 2.6-1.7 4.3-2.2 1.7-0.5 3-0.5 4.7 0 1.7 0.5 2.8 1.3 3.8 2.7 1 1.5 1.5 2.8 1.8 4.5 0.2 1.4 0.2 2.6 0.1 4-0.1 3-0.7 5.6-1.5 8.5-9.6 25.8-21.7 44.1-33.3 67.8q-1.5 2.3-2.5 3.5c-9 11.5 17.6-41.7 18.8-44.5 4.1-9.4 7.8-18.5 10.2-28.5 0.7-3 1.3-6.4 0.6-9.4 0-0.3-0.2-0.8-0.3-1.1-0.5 0.2-1 0.5-1.4 0.9-2.2 1.9-3.6 4.3-4.8 6.8-7.5 15.8-22.4 53.7-30.9 66.6-4.1 5.3-7.8 8.2-14.3 10.3-5.3 1.4-9.4 1.6-14.7 1.4-3.2-0.1-6.7-0.4-9.9-0.8-13.5-1.8-27.2-4.4-40.6-6.8-3.9-0.7-7.2-1-11.1-0.5-2.5 0.4-4.5 1.1-6.5 2.6-0.8 0.6-1.4 1.2-1.9 2-0.6 0.8-0.9 1.5-1.1 2.4-0.3 0.9-0.3 1.6-0.3 2.6 0.1 0.5 0.3 1.1 0.4 1.6 0.1 0.8 0.2 1.5-0.3 2-1.2 0.2-2.7-1.6-3.2-2.4-0.8-1.3-1.2-2.4-1.4-3.9q0-0.4 0-0.7c0-1.3 0.1-2.4 0.5-3.7 0.6-1.6 1.2-2.8 2.3-4.1 2.6-3.2 5.4-4.7 9.3-6 5-1.6 9.3-1.7 14.6-1.2 13.5 1.5 27 3.5 40.5 5 6.4 0.6 13.7 1.4 20-0.1 4-1.3 6.1-3 8.7-6.2zm30.7 2.6c3.3-7 11.8-10.2 19.2-7.1 7.3 3.1 10.6 11.4 7.4 18.5-3.3 7-11.8 10.2-19.2 7.1-7.3-3.1-10.6-11.4-7.4-18.5z"/>
		</g>
	</g>
</svg>