<svg width="170" height="169" viewBox="0 0 170 169" fill="none" xmlns="http://www.w3.org/2000/svg">
<g filter="url(#filter0_dd_1757_26625)">
<path d="M160 84.631C160 43.2096 126.421 9.63086 85 9.63086C43.5786 9.63086 10 43.2096 10 84.631C10 126.052 43.5786 159.631 85 159.631C126.421 159.631 160 126.052 160 84.631Z" fill="#004C33"/>
<path d="M75.1843 63.8564C77.1397 84.2719 93.1944 84.0116 102.574 87.4811C68.3835 98.7784 48.7421 79.5533 63.4845 35.8321C70.5261 58.8531 98.1142 50.4169 98.305 79.739C110.21 78.1173 119.462 67.8491 119.462 55.5253C119.46 42.0845 108.457 31.0879 95.0068 31.0879H62.05C57.3466 31.0879 53.5078 34.9229 53.5078 39.6244V120.305C53.5078 125.006 57.3454 128.841 62.05 128.841H79.2542C81.903 132.005 85.4691 134.058 85.4691 134.058V134.052C69.1503 112.844 79.4731 96.1447 103.417 95.2843C96.5256 98.5889 84.4003 105.996 88.3883 116.658C87.4686 110.258 91.596 103.708 99.0522 101.754C105.475 119.812 86.6407 120.767 87.4478 136.477C88.5582 129.49 95.7552 129.007 98.6743 128.571C121.471 125.175 129.942 90.578 102.386 83.2477C91.8773 80.4528 79.7825 80.0788 75.1855 63.8564" fill="white"/>
</g>
<defs>
<filter id="filter0_dd_1757_26625" x="0.966654" y="0.597513" width="168.067" height="168.067" filterUnits="userSpaceOnUse" color-interpolation-filters="sRGB">
<feFlood flood-opacity="0" result="BackgroundImageFix"/>
<feColorMatrix in="SourceAlpha" type="matrix" values="0 0 0 0 0 0 0 0 0 0 0 0 0 0 0 0 0 0 127 0" result="hardAlpha"/>
<feOffset dx="3.01112" dy="3.01112"/>
<feGaussianBlur stdDeviation="3.01112"/>
<feColorMatrix type="matrix" values="0 0 0 0 0 0 0 0 0 0 0 0 0 0 0 0 0 0 0.15 0"/>
<feBlend mode="normal" in2="BackgroundImageFix" result="effect1_dropShadow_1757_26625"/>
<feColorMatrix in="SourceAlpha" type="matrix" values="0 0 0 0 0 0 0 0 0 0 0 0 0 0 0 0 0 0 127 0" result="hardAlpha"/>
<feOffset dx="-3.01112" dy="-3.01112"/>
<feGaussianBlur stdDeviation="3.01112"/>
<feComposite in2="hardAlpha" operator="out"/>
<feColorMatrix type="matrix" values="0 0 0 0 1 0 0 0 0 1 0 0 0 0 1 0 0 0 0.05 0"/>
<feBlend mode="normal" in2="effect1_dropShadow_1757_26625" result="effect2_dropShadow_1757_26625"/>
<feBlend mode="normal" in="SourceGraphic" in2="effect2_dropShadow_1757_26625" result="shape"/>
</filter>
</defs>
</svg>
